<svg viewBox="0 0 1024 1024" preserveAspectRatio="xMidYMid meet" xmlns="http://www.w3.org/2000/svg" width="1024" height="1024" background="transparent" style="background: transparent;"><g><path d="M0 0 C1.126 -0.005 2.252 -0.01 3.413 -0.015 C7.153 -0.026 10.892 -0.009 14.632 0.009 C17.327 0.006 20.022 0.003 22.717 -0.003 C29.256 -0.013 35.794 -0.002 42.333 0.017 C49.958 0.038 57.583 0.037 65.207 0.036 C78.816 0.035 92.424 0.054 106.033 0.083 C119.221 0.111 132.408 0.125 145.596 0.124 C146.815 0.124 146.815 0.124 148.059 0.124 C148.87 0.124 149.681 0.123 150.517 0.123 C165.558 0.122 180.6 0.134 195.641 0.152 C200.949 0.158 206.257 0.16 211.565 0.161 C218.037 0.162 224.508 0.171 230.98 0.189 C234.278 0.199 237.577 0.204 240.875 0.202 C244.458 0.201 248.04 0.213 251.622 0.227 C253.171 0.222 253.171 0.222 254.752 0.218 C271.368 0.328 284.843 5.97 296.559 17.67 C307.809 29.774 313.522 43.354 313.408 59.763 C313.408 60.878 313.409 61.993 313.409 63.141 C313.409 65.554 313.405 67.968 313.397 70.381 C313.387 74.207 313.393 78.033 313.403 81.86 C313.431 92.736 313.444 103.612 313.414 114.489 C313.396 121.149 313.41 127.81 313.441 134.47 C313.447 137.001 313.442 139.532 313.426 142.063 C313.404 145.612 313.419 149.159 313.443 152.708 C313.428 153.742 313.412 154.777 313.396 155.842 C313.531 165.455 317.723 173.55 324.169 180.623 C328.663 184.796 333.594 188.46 338.464 192.18 C355.122 204.913 368.084 219.566 373.184 240.494 C375.235 256.303 371.225 271.994 362.083 285.049 C351.337 298.89 338.92 307.33 323.184 314.494 C322.547 314.789 321.91 315.083 321.253 315.386 C318.381 316.674 316.369 317.494 313.184 317.494 C313.184 338.284 313.184 359.074 313.184 380.494 C317.804 381.154 322.424 381.814 327.184 382.494 C330.108 383.422 332.587 384.273 335.309 385.557 C335.974 385.861 336.639 386.165 337.323 386.478 C343.941 389.635 349.629 393.716 355.184 398.494 C356.057 399.22 356.93 399.946 357.829 400.694 C370.726 412.362 375.121 427.367 378.585 443.836 C379.553 448.132 380.806 452.337 382.059 456.557 C384.852 466.071 387.284 475.659 389.649 485.288 C393.012 498.971 396.724 512.537 400.684 526.057 C402.187 531.202 403.687 536.348 405.184 541.494 C405.548 542.744 405.913 543.994 406.288 545.282 C408.439 552.723 410.305 560.14 411.962 567.705 C413.118 572.539 414.653 577.252 416.155 581.986 C418.472 589.328 420.561 596.729 422.614 604.149 C423.246 606.429 423.884 608.707 424.522 610.985 C426.81 619.199 428.949 627.427 430.816 635.748 C431.803 640.103 433.031 644.319 434.434 648.557 C436.866 656.111 438.952 663.755 440.943 671.436 C441.306 672.826 441.675 674.214 442.051 675.601 C447.142 694.453 446.37 711.871 437.184 729.494 C428.33 743.792 415.465 753.694 399.422 758.659 C386.045 761.731 371.446 760.569 359.184 754.494 C358.299 754.072 357.413 753.649 356.501 753.213 C340.845 744.811 334.351 731.759 329.184 715.494 C328.03 711.591 326.946 707.671 325.872 703.744 C323.411 694.851 320.897 685.976 318.309 677.119 C318.011 676.098 317.713 675.076 317.406 674.023 C315.86 668.739 315.86 668.739 314.184 663.494 C314.162 665.279 314.162 665.279 314.14 667.099 C314.082 671.554 314.004 676.008 313.922 680.462 C313.889 682.382 313.861 684.303 313.838 686.223 C313.804 688.999 313.752 691.774 313.696 694.549 C313.69 695.394 313.683 696.24 313.677 697.11 C313.303 712.585 305.901 727.056 295.079 737.866 C282.888 748.938 270.073 752.644 253.983 752.642 C252.85 752.645 251.718 752.649 250.551 752.653 C246.753 752.664 242.956 752.668 239.158 752.671 C236.436 752.677 233.714 752.684 230.992 752.691 C222.824 752.711 214.656 752.721 206.488 752.73 C202.637 752.735 198.787 752.74 194.937 752.745 C182.132 752.762 169.326 752.777 156.521 752.784 C153.201 752.786 149.881 752.788 146.561 752.79 C145.736 752.79 144.911 752.791 144.061 752.791 C130.696 752.799 117.331 752.825 103.966 752.857 C90.233 752.89 76.5 752.908 62.766 752.912 C55.06 752.914 47.354 752.922 39.648 752.948 C33.086 752.97 26.523 752.978 19.96 752.968 C16.615 752.963 13.27 752.967 9.925 752.985 C6.29 753.002 2.656 752.995 -0.979 752.982 C-2.548 752.999 -2.548 752.999 -4.148 753.015 C-14.231 752.928 -22.398 749.806 -30.746 744.252 C-32.861 743.253 -32.861 743.253 -35.288 744.155 C-37.863 745.52 -40.063 747.04 -42.378 748.807 C-47.856 752.719 -53.481 755.27 -59.816 757.494 C-60.518 757.742 -61.221 757.989 -61.945 758.244 C-76.422 762.324 -91.793 759.769 -104.874 752.885 C-121.335 742.931 -131.759 728.467 -137.089 710.049 C-139.358 698.95 -137.903 688.289 -134.816 677.494 C-134.362 675.868 -133.909 674.242 -133.456 672.616 C-131.525 665.738 -129.529 658.88 -127.492 652.034 C-127.079 650.646 -126.666 649.258 -126.253 647.869 C-125.952 646.857 -125.952 646.857 -125.645 645.823 C-123.833 639.671 -122.196 633.476 -120.603 627.264 C-119.368 622.476 -118.011 617.741 -116.575 613.01 C-115.339 608.914 -114.173 604.798 -113.003 600.682 C-112.539 599.05 -112.074 597.419 -111.609 595.787 C-111.342 594.849 -111.075 593.91 -110.799 592.943 C-110.038 590.275 -109.275 587.607 -108.51 584.94 C-105.851 575.665 -103.216 566.383 -100.624 557.088 C-100.218 555.631 -100.218 555.631 -99.803 554.144 C-98.654 550.023 -97.506 545.901 -96.358 541.779 C-92.98 529.659 -89.562 517.554 -86.015 505.483 C-85.712 504.448 -85.409 503.414 -85.097 502.348 C-83.652 497.419 -82.198 492.494 -80.728 487.573 C-80.207 485.803 -79.687 484.034 -79.167 482.264 C-78.927 481.475 -78.688 480.685 -78.44 479.872 C-76.368 472.749 -76.342 467.073 -78.816 459.994 C-80.964 453.312 -82.127 448.031 -78.98 441.428 C-75.899 436.311 -71.953 431.36 -67.458 427.436 C-61.025 421.298 -59.972 416.068 -59.702 407.423 C-59.629 402.952 -59.668 398.486 -59.718 394.014 C-59.713 391.631 -59.703 389.247 -59.689 386.864 C-59.665 380.622 -59.694 374.38 -59.734 368.138 C-59.766 361.756 -59.747 355.374 -59.732 348.993 C-59.71 336.493 -59.745 323.994 -59.816 311.494 C-61.466 311.494 -63.116 311.494 -64.816 311.494 C-64.816 290.044 -64.816 268.594 -64.816 246.494 C-63.166 246.494 -61.516 246.494 -59.816 246.494 C-59.816 238.244 -59.816 229.994 -59.816 221.494 C-61.466 221.494 -63.116 221.494 -64.816 221.494 C-64.816 197.404 -64.816 173.314 -64.816 148.494 C-63.166 148.494 -61.516 148.494 -59.816 148.494 C-59.825 147.365 -59.834 146.235 -59.843 145.072 C-59.924 134.363 -59.984 123.655 -60.023 112.946 C-60.044 107.443 -60.072 101.939 -60.118 96.435 C-60.161 91.112 -60.185 85.789 -60.195 80.465 C-60.203 78.447 -60.217 76.428 -60.239 74.409 C-60.366 62.098 -59.547 51.285 -55.816 39.494 C-55.515 38.533 -55.215 37.571 -54.905 36.58 C-50.352 22.889 -38.96 12.122 -26.34 5.671 C-17.607 1.601 -9.593 -0.096 0 0 Z " fill="#FEFEFE" transform="translate(384.8158264160156,138.50552368164063)"/></g><g><path d="M0 0 C1.126 -0.005 2.252 -0.01 3.413 -0.015 C7.153 -0.026 10.892 -0.009 14.632 0.009 C17.327 0.006 20.022 0.003 22.717 -0.003 C29.256 -0.013 35.794 -0.002 42.333 0.017 C49.958 0.038 57.583 0.037 65.207 0.036 C78.816 0.035 92.424 0.054 106.033 0.083 C119.221 0.111 132.408 0.125 145.596 0.124 C146.815 0.124 146.815 0.124 148.059 0.124 C148.87 0.124 149.681 0.123 150.517 0.123 C165.558 0.122 180.6 0.134 195.641 0.152 C200.949 0.158 206.257 0.16 211.565 0.161 C218.037 0.162 224.508 0.171 230.98 0.189 C234.278 0.199 237.577 0.204 240.875 0.202 C244.458 0.201 248.04 0.213 251.622 0.227 C253.171 0.222 253.171 0.222 254.752 0.218 C271.368 0.328 284.843 5.97 296.559 17.67 C307.809 29.774 313.522 43.354 313.408 59.763 C313.408 60.878 313.409 61.993 313.409 63.141 C313.409 65.554 313.405 67.968 313.397 70.381 C313.387 74.207 313.393 78.033 313.403 81.86 C313.431 92.736 313.444 103.612 313.414 114.489 C313.396 121.149 313.41 127.81 313.441 134.47 C313.447 137.001 313.442 139.532 313.426 142.063 C313.404 145.612 313.419 149.159 313.443 152.708 C313.428 153.742 313.412 154.777 313.396 155.842 C313.531 165.455 317.723 173.55 324.169 180.623 C328.663 184.796 333.594 188.46 338.464 192.18 C355.122 204.913 368.084 219.566 373.184 240.494 C375.235 256.303 371.225 271.994 362.083 285.049 C351.337 298.89 338.92 307.33 323.184 314.494 C322.547 314.789 321.91 315.083 321.253 315.386 C318.381 316.674 316.369 317.494 313.184 317.494 C313.184 340.264 313.184 363.034 313.184 386.494 C311.534 385.834 309.884 385.174 308.184 384.494 C303.894 384.494 299.604 384.494 295.184 384.494 C295.184 363.704 295.184 342.914 295.184 321.494 C294.194 321.824 293.204 322.154 292.184 322.494 C287.829 322.703 283.47 322.68 279.11 322.68 C276.983 322.682 274.857 322.7 272.731 322.719 C258.779 322.781 245.787 321.22 232.559 316.557 C231.524 316.21 230.489 315.862 229.422 315.504 C220.099 312.31 220.099 312.31 216.184 309.494 C215.567 306.65 215.325 304.591 215.372 301.744 C215.381 301.017 215.39 300.289 215.4 299.539 C215.571 296.352 215.875 293.969 217.633 291.272 C219.559 289.682 219.559 289.682 221.774 288.162 C237.266 277.441 246.511 256.805 250.559 238.994 C250.869 237.262 250.869 237.262 251.184 235.494 C256.184 237.494 256.184 237.494 258.434 238.619 C266.404 241.155 273.875 239.149 281.184 235.494 C291.991 228.596 299.401 218.07 302.184 205.494 C303.136 192.332 303.136 192.332 298.184 180.494 C297.669 179.628 297.153 178.762 296.622 177.869 C291.497 172.877 285.194 169.169 277.934 168.869 C271.266 169.354 267.019 172.409 262.372 176.932 C258.547 181.45 258.042 186.072 257.473 191.834 C257.184 194.494 257.184 194.494 256.184 195.494 C254.534 195.494 252.884 195.494 251.184 195.494 C251.184 186.584 251.184 177.674 251.184 168.494 C249.184 168.536 247.183 168.577 245.122 168.619 C225.152 168.619 225.152 168.619 218.184 164.494 C218.184 165.814 218.184 167.134 218.184 168.494 C213.398 167.911 209.586 166.415 205.184 164.494 C201.108 163.486 197.056 163.206 192.872 162.932 C191.617 162.848 190.363 162.764 189.071 162.678 C188.118 162.617 187.166 162.557 186.184 162.494 C185.184 155.744 185.184 155.744 185.184 153.494 C184.047 152.9 182.91 152.306 181.739 151.694 C156.566 138.289 135.92 119.343 123.184 93.494 C121.243 96.575 119.537 99.727 117.907 102.979 C109.251 120.185 98.876 135.057 86.184 149.494 C85.595 150.194 85.006 150.894 84.399 151.616 C81.73 154.77 79.04 157.65 75.903 160.342 C68.947 166.262 68.947 166.262 65.266 174.35 C65.171 176.903 65.152 179.46 65.215 182.014 C65.172 186.845 63.583 190.377 61.184 194.494 C51.337 190.747 43.657 184.832 36.184 177.494 C35.471 176.806 34.758 176.118 34.024 175.409 C21.459 162.384 16.742 144.945 16.891 127.279 C17.527 100.683 30.935 79.735 49.712 61.686 C54.228 57.465 58.984 53.837 64.184 50.494 C64.731 50.141 65.278 49.787 65.842 49.423 C94.69 30.945 128.261 19.847 162.623 20.103 C165.183 20.119 167.741 20.103 170.301 20.084 C184.342 20.066 197.776 21.906 211.309 25.744 C212.05 25.954 212.791 26.164 213.555 26.38 C227.905 30.636 240.791 38.232 253.184 46.494 C253.102 45.546 253.019 44.597 252.934 43.619 C252.969 34.877 258.237 27.322 263.184 20.494 C260.743 18.053 260.13 18.243 256.783 18.237 C255.853 18.231 254.922 18.224 253.963 18.218 C252.419 18.222 252.419 18.222 250.843 18.227 C249.755 18.223 248.667 18.218 247.545 18.213 C243.874 18.201 240.202 18.202 236.53 18.204 C233.907 18.198 231.285 18.191 228.662 18.184 C222.26 18.167 215.858 18.161 209.457 18.16 C204.251 18.159 199.044 18.155 193.838 18.149 C179.075 18.131 164.312 18.122 149.549 18.124 C148.753 18.124 147.956 18.124 147.136 18.124 C145.939 18.124 145.939 18.124 144.719 18.124 C131.813 18.125 118.907 18.106 106.001 18.078 C92.747 18.049 79.493 18.035 66.239 18.037 C58.799 18.037 51.359 18.032 43.919 18.01 C37.579 17.992 31.24 17.988 24.9 18.001 C21.668 18.008 18.437 18.006 15.205 17.991 C11.692 17.975 8.181 17.985 4.668 18 C3.658 17.99 2.649 17.979 1.609 17.969 C-10.288 18.083 -20.022 22.576 -28.816 30.494 C-37.181 39.853 -40.431 50.46 -40.335 62.84 C-40.346 64.471 -40.346 64.471 -40.358 66.135 C-40.378 69.749 -40.37 73.363 -40.362 76.978 C-40.37 79.58 -40.381 82.183 -40.393 84.785 C-40.416 90.373 -40.425 95.961 -40.424 101.549 C-40.422 109.628 -40.443 117.707 -40.468 125.786 C-40.509 138.897 -40.533 152.007 -40.545 165.117 C-40.557 177.847 -40.577 190.576 -40.608 203.306 C-40.61 204.091 -40.612 204.877 -40.614 205.687 C-40.624 209.628 -40.634 213.57 -40.644 217.512 C-40.727 250.173 -40.781 282.834 -40.816 315.494 C-40.253 315.38 -39.689 315.265 -39.109 315.147 C-36.514 314.62 -33.919 314.096 -31.324 313.573 C-30.438 313.392 -29.552 313.212 -28.639 313.026 C1.29 306.999 1.29 306.999 10.501 312.299 C15.712 315.999 18.442 321.66 19.633 327.812 C19.771 328.702 19.909 329.593 20.051 330.51 C21.342 338.547 22.779 346.556 24.216 354.568 C24.685 357.187 25.151 359.807 25.618 362.426 C25.921 364.12 26.224 365.813 26.528 367.506 C26.664 368.275 26.801 369.044 26.942 369.836 C27.77 374.437 28.721 378.992 29.793 383.543 C30.263 385.889 30.338 388.109 30.184 390.494 C30.824 390.783 31.463 391.072 32.122 391.369 C34.184 392.494 34.184 392.494 35.184 394.494 C35.317 396.369 35.317 396.369 35.309 398.494 C35.313 399.546 35.313 399.546 35.317 400.619 C35.184 402.494 35.184 402.494 34.184 404.494 C34.317 411.53 35.176 418.43 36.782 425.276 C37.225 427.721 37.25 430.014 37.184 432.494 C38.545 432.866 38.545 432.866 39.934 433.244 C43.488 434.611 45.073 435.328 47.184 438.494 C47.87 442.679 48.037 446.233 45.622 449.807 C44.91 450.642 44.91 450.642 44.184 451.494 C44.341 454.086 44.756 455.115 46.704 456.842 C49.058 459.47 48.771 461.862 48.688 465.264 C47.81 469.149 45.436 470.395 42.184 472.494 C42.184 471.504 42.184 470.514 42.184 469.494 C42.844 468.896 43.504 468.298 44.184 467.682 C46.445 465.626 46.445 465.626 46.575 462.612 C46.458 459.454 46.458 459.454 44.481 457.397 C20.042 437.124 20.042 437.124 -8.581 427.102 C-13.836 428.025 -18.592 430.869 -23.316 433.244 C-24.418 433.783 -25.52 434.322 -26.656 434.877 C-31.181 437.105 -35.649 439.347 -39.972 441.948 C-40.911 442.458 -41.849 442.969 -42.816 443.494 C-43.476 443.164 -44.136 442.834 -44.816 442.494 C-43.565 441.802 -43.565 441.802 -42.288 441.096 C-34.344 436.492 -28.642 431.7 -22.816 424.494 C-21.553 422.988 -20.283 421.487 -19.003 419.994 C-18.481 419.365 -17.959 418.736 -17.421 418.088 C-15.683 416.362 -14.052 415.464 -11.816 414.494 C-12.214 414.919 -12.612 415.343 -13.023 415.78 C-16.674 419.822 -18.937 423.381 -20.816 428.494 C-19.764 428.044 -19.764 428.044 -18.691 427.584 C-17.742 427.204 -16.793 426.824 -15.816 426.432 C-14.888 426.049 -13.96 425.666 -13.003 425.272 C-5.797 423.514 -0.267 425.797 5.934 429.244 C7.007 429.824 7.007 429.824 8.101 430.415 C15.108 434.283 21.786 438.662 28.408 443.152 C32.574 445.949 36.257 448.229 41.184 449.494 C43.576 447.102 43.53 446.343 43.622 443.057 C43.662 442.275 43.702 441.492 43.743 440.686 C43.37 438.302 43.37 438.302 41.114 436.846 C37.753 435.296 34.444 434.275 30.872 433.307 C28.99 432.791 28.99 432.791 27.071 432.264 C26.118 432.01 25.166 431.756 24.184 431.494 C24.184 430.834 24.184 430.174 24.184 429.494 C27.484 429.824 30.784 430.154 34.184 430.494 C32.534 423.564 30.884 416.634 29.184 409.494 C27.864 409.824 26.544 410.154 25.184 410.494 C26.174 409.174 27.164 407.854 28.184 406.494 C25.544 406.164 22.904 405.834 20.184 405.494 C20.184 405.164 20.184 404.834 20.184 404.494 C24.144 403.834 28.104 403.174 32.184 402.494 C32.184 399.854 32.184 397.214 32.184 394.494 C25.438 390.96 18.418 390.315 10.934 389.369 C9.675 389.201 8.415 389.032 7.118 388.858 C-0.182 387.895 -7.477 387.086 -14.816 386.494 C-16.088 386.381 -17.36 386.268 -18.671 386.151 C-19.771 386.099 -20.87 386.048 -22.003 385.994 C-23.111 385.922 -24.218 385.85 -25.359 385.776 C-30.5 386.845 -33.192 389.833 -36.816 393.494 C-37.832 394.52 -37.832 394.52 -38.869 395.567 C-40.941 397.706 -42.976 399.875 -45.003 402.057 C-45.688 402.786 -46.374 403.515 -47.079 404.266 C-50.058 407.45 -52.982 410.646 -55.742 414.022 C-56.768 415.246 -56.768 415.246 -57.816 416.494 C-58.146 416.494 -58.476 416.494 -58.816 416.494 C-59.146 382.174 -59.476 347.854 -59.816 312.494 C-61.466 312.164 -63.116 311.834 -64.816 311.494 C-64.816 290.044 -64.816 268.594 -64.816 246.494 C-63.166 246.494 -61.516 246.494 -59.816 246.494 C-59.816 238.244 -59.816 229.994 -59.816 221.494 C-61.466 221.494 -63.116 221.494 -64.816 221.494 C-64.816 197.404 -64.816 173.314 -64.816 148.494 C-63.166 148.494 -61.516 148.494 -59.816 148.494 C-59.825 147.365 -59.834 146.235 -59.843 145.072 C-59.924 134.363 -59.984 123.655 -60.023 112.946 C-60.044 107.443 -60.072 101.939 -60.118 96.435 C-60.161 91.112 -60.185 85.789 -60.195 80.465 C-60.203 78.447 -60.217 76.428 -60.239 74.409 C-60.366 62.098 -59.547 51.285 -55.816 39.494 C-55.515 38.533 -55.215 37.571 -54.905 36.58 C-50.352 22.889 -38.96 12.122 -26.34 5.671 C-17.607 1.601 -9.593 -0.096 0 0 Z " fill="#020102" transform="translate(384.8158264160156,138.50552368164063)"/></g><g><path d="M0 0 C16.402 1.256 29.529 7.273 42 18 C42.873 18.726 43.745 19.451 44.645 20.199 C57.542 31.868 61.937 46.873 65.401 63.341 C66.369 67.638 67.622 71.842 68.875 76.062 C71.667 85.576 74.1 95.165 76.464 104.793 C79.828 118.476 83.54 132.042 87.5 145.562 C89.003 150.707 90.503 155.853 92 161 C92.364 162.25 92.728 163.499 93.104 164.787 C95.255 172.228 97.121 179.645 98.777 187.211 C99.934 192.045 101.468 196.757 102.971 201.492 C105.288 208.834 107.377 216.234 109.43 223.654 C110.062 225.934 110.699 228.212 111.338 230.49 C113.626 238.705 115.765 246.932 117.631 255.254 C118.619 259.609 119.847 263.824 121.25 268.062 C123.682 275.616 125.768 283.261 127.759 290.941 C128.122 292.331 128.491 293.72 128.867 295.106 C133.958 313.959 133.186 331.377 124 349 C115.146 363.298 102.281 373.2 86.238 378.164 C72.861 381.237 58.262 380.075 46 374 C45.114 373.577 44.229 373.154 43.316 372.719 C27.66 364.317 21.167 351.264 16 335 C14.846 331.097 13.761 327.176 12.688 323.25 C10.227 314.357 7.713 305.482 5.125 296.625 C4.827 295.603 4.529 294.581 4.221 293.528 C2.675 288.244 2.675 288.244 1 283 C0.985 284.19 0.971 285.379 0.956 286.605 C0.897 291.06 0.82 295.514 0.738 299.968 C0.704 301.888 0.676 303.808 0.654 305.729 C0.62 308.504 0.567 311.279 0.512 314.055 C0.505 314.9 0.499 315.745 0.492 316.616 C0.119 332.09 -7.283 346.562 -18.105 357.371 C-30.297 368.443 -43.111 372.15 -59.201 372.147 C-60.334 372.151 -61.467 372.155 -62.634 372.158 C-66.431 372.169 -70.229 372.173 -74.026 372.177 C-76.748 372.183 -79.47 372.19 -82.192 372.197 C-90.36 372.217 -98.528 372.227 -106.696 372.236 C-110.547 372.24 -114.397 372.245 -118.248 372.251 C-131.053 372.268 -143.858 372.282 -156.663 372.289 C-159.983 372.291 -163.303 372.293 -166.623 372.295 C-167.448 372.296 -168.273 372.296 -169.123 372.297 C-182.488 372.305 -195.853 372.33 -209.218 372.363 C-222.951 372.396 -236.685 372.414 -250.418 372.417 C-258.124 372.419 -265.83 372.428 -273.536 372.453 C-280.099 372.475 -286.661 372.483 -293.224 372.474 C-296.569 372.469 -299.914 372.473 -303.259 372.49 C-306.894 372.508 -310.529 372.501 -314.164 372.488 C-315.732 372.504 -315.732 372.504 -317.332 372.521 C-327.415 372.433 -335.583 369.312 -343.93 363.758 C-346.046 362.759 -346.046 362.759 -348.473 363.66 C-351.047 365.025 -353.247 366.546 -355.562 368.312 C-361.04 372.225 -366.665 374.775 -373 377 C-373.703 377.247 -374.405 377.495 -375.129 377.75 C-389.606 381.83 -404.977 379.274 -418.059 372.391 C-434.519 362.437 -444.943 347.972 -450.273 329.555 C-452.542 318.456 -451.088 307.795 -448 297 C-447.547 295.374 -447.093 293.747 -446.641 292.121 C-444.709 285.244 -442.713 278.386 -440.676 271.539 C-440.263 270.151 -439.85 268.763 -439.438 267.375 C-439.136 266.362 -439.136 266.362 -438.829 265.329 C-437.017 259.176 -435.38 252.981 -433.787 246.769 C-432.553 241.982 -431.195 237.246 -429.759 232.516 C-428.523 228.419 -427.357 224.303 -426.188 220.188 C-425.723 218.556 -425.258 216.924 -424.793 215.293 C-424.526 214.354 -424.259 213.416 -423.984 212.449 C-423.223 209.78 -422.459 207.113 -421.694 204.446 C-418.469 193.194 -415.295 181.929 -412.153 170.654 C-407.02 152.234 -401.861 133.821 -396.605 115.436 C-396.036 113.442 -395.47 111.447 -394.907 109.452 C-394.128 106.693 -393.339 103.938 -392.547 101.184 C-392.202 99.953 -392.202 99.953 -391.851 98.697 C-391.294 96.78 -390.655 94.886 -390 93 C-389.34 92.67 -388.68 92.34 -388 92 C-387.311 94.187 -386.624 96.375 -385.938 98.562 C-385.711 99.284 -385.485 100.005 -385.252 100.748 C-384.001 104.751 -382.767 108.759 -381.566 112.777 C-377.149 127.529 -372.408 142.167 -367.619 156.801 C-356.898 189.576 -356.898 189.576 -358.938 194.062 C-359.288 194.702 -359.639 195.341 -360 196 C-360.958 201.99 -358.998 205.53 -355.867 210.43 C-353.332 213.919 -350.514 217.068 -347.539 220.188 C-346 222 -346 222 -346 224 C-345.43 224.254 -344.86 224.508 -344.273 224.77 C-341.73 226.146 -339.808 227.792 -337.625 229.688 C-329.753 236.069 -320.365 241.793 -310 242 C-308.68 238.37 -307.36 234.74 -306 231 C-301.994 234.672 -299.27 238.024 -297 243 C-297.37 247.728 -298.949 251.573 -300.875 255.875 C-303.356 261.475 -303.356 261.475 -305.562 267.188 C-306.589 270.033 -307.802 272.73 -309.102 275.461 C-313.127 284.268 -316.405 293.379 -319.812 302.438 C-320.832 305.143 -321.853 307.847 -322.875 310.551 C-323.553 312.343 -324.229 314.135 -324.903 315.928 C-326.642 320.527 -328.436 325.092 -330.33 329.629 C-330.705 330.537 -331.081 331.445 -331.469 332.38 C-332.188 334.107 -332.918 335.829 -333.66 337.546 C-336.063 343.141 -336.063 343.141 -335 349 C-333.389 350.385 -333.389 350.385 -331.312 351.188 C-330.317 351.642 -330.317 351.642 -329.301 352.105 C-328.542 352.401 -327.782 352.696 -327 353 C-326.188 353.343 -325.376 353.686 -324.54 354.039 C-319.675 355.36 -315.077 355.283 -310.058 355.267 C-308.953 355.272 -307.848 355.276 -306.71 355.281 C-303.007 355.294 -299.304 355.292 -295.601 355.291 C-292.946 355.297 -290.291 355.303 -287.637 355.311 C-281.173 355.327 -274.71 355.333 -268.246 355.334 C-262.99 355.335 -257.735 355.339 -252.479 355.346 C-237.568 355.363 -222.658 355.372 -207.748 355.371 C-206.944 355.371 -206.141 355.371 -205.313 355.371 C-204.509 355.371 -203.704 355.37 -202.875 355.37 C-189.843 355.37 -176.81 355.389 -163.777 355.417 C-150.387 355.446 -136.996 355.459 -123.605 355.458 C-116.09 355.457 -108.576 355.462 -101.062 355.484 C-94.663 355.502 -88.265 355.507 -81.866 355.493 C-78.604 355.487 -75.342 355.489 -72.08 355.504 C-68.537 355.519 -64.994 355.51 -61.45 355.494 C-59.919 355.51 -59.919 355.51 -58.356 355.526 C-47.994 355.426 -38.949 351.634 -31 345 C-20.612 334.304 -19.406 323.038 -19.454 308.8 C-19.445 307.075 -19.435 305.349 -19.423 303.624 C-19.395 298.965 -19.392 294.307 -19.392 289.648 C-19.389 284.77 -19.364 279.892 -19.341 275.014 C-19.3 265.789 -19.28 256.563 -19.267 247.338 C-19.251 236.83 -19.212 226.322 -19.172 215.814 C-19.09 194.209 -19.035 172.605 -19 151 C-13.459 153.675 -8.855 157.167 -5 162 C-4.187 165.612 -5.004 168.482 -6 172 C-9.75 187.208 -8.932 198.026 -5 213 C8.679 216.809 23.177 213.964 35.312 207.188 C41.434 203.29 46.767 198.59 50 192 C50.287 188.949 50.287 188.949 50.062 185.75 C49.879 181.899 50.023 178.556 50.925 174.826 C51.961 170.316 52.678 165.818 53.297 161.234 C53.533 159.54 53.769 157.846 54.005 156.151 C54.127 155.271 54.248 154.39 54.373 153.483 C56.03 141.467 57.711 129.461 59.727 117.5 C59.866 116.67 60.005 115.84 60.148 114.985 C60.806 111.072 61.479 107.163 62.171 103.257 C65.305 88.492 65.305 88.492 62.615 74.319 C60.62 71.608 58.404 69.36 56 67 C54.716 65.704 53.434 64.407 52.152 63.109 C50.081 61.02 48.004 58.94 45.9 56.883 C41.916 52.987 38.165 48.978 34.53 44.754 C32.773 42.74 30.923 40.856 29 39 C26.45 36.538 24.086 33.973 21.766 31.297 C17.207 26.047 12.405 21.036 7.609 16.004 C6.929 15.286 6.248 14.568 5.547 13.828 C4.937 13.188 4.327 12.547 3.698 11.888 C1.981 9.979 0.387 8.164 -1 6 C-0.688 2.75 -0.688 2.75 0 0 Z " fill="#8763FB" transform="translate(698,519)"/></g><g><path d="M0 0 C0.001 0.579 0.003 1.158 0.004 1.755 C0.024 7.823 0.079 13.891 0.153 19.958 C0.176 22.218 0.19 24.478 0.196 26.738 C0.205 30 0.246 33.261 0.293 36.523 C0.289 37.522 0.285 38.52 0.281 39.549 C0.427 46.659 2.111 52.013 6 58 C8.232 60.286 8.232 60.286 10.688 61.562 C11.454 62.018 12.221 62.473 13.012 62.941 C17.115 65.126 20.408 65.148 25.001 65.147 C26.255 65.153 26.255 65.153 27.536 65.158 C30.355 65.169 33.175 65.173 35.994 65.177 C38.01 65.183 40.025 65.19 42.04 65.197 C47.528 65.214 53.016 65.225 58.504 65.233 C61.932 65.238 65.36 65.244 68.789 65.251 C79.514 65.27 90.239 65.284 100.964 65.292 C113.346 65.302 125.728 65.328 138.11 65.369 C147.678 65.399 157.246 65.414 166.814 65.417 C172.529 65.419 178.244 65.428 183.959 65.453 C189.34 65.477 194.72 65.481 200.1 65.471 C202.072 65.47 204.043 65.477 206.015 65.49 C208.714 65.508 211.412 65.501 214.111 65.488 C214.885 65.499 215.659 65.51 216.456 65.521 C222.91 65.446 229.033 63.74 233.864 59.279 C239.088 53.561 241.44 47.964 241.512 40.195 C241.53 39.471 241.548 38.747 241.566 38.001 C241.62 35.709 241.654 33.417 241.688 31.125 C241.721 29.562 241.755 28 241.791 26.438 C241.878 22.625 241.938 18.813 242 15 C251.57 15 261.14 15 271 15 C271.093 37.644 271.164 60.289 271.207 82.933 C271.228 93.448 271.256 103.963 271.302 114.478 C271.342 123.644 271.367 132.811 271.376 141.978 C271.382 146.83 271.394 151.682 271.423 156.533 C271.45 161.105 271.458 165.677 271.452 170.249 C271.454 171.922 271.461 173.594 271.477 175.267 C271.595 188.795 269.551 198.865 260 209 C253.023 215.278 244.855 220.11 235.309 220.137 C233.892 220.145 233.892 220.145 232.447 220.152 C230.895 220.153 230.895 220.153 229.312 220.154 C228.21 220.158 227.108 220.163 225.973 220.167 C222.269 220.181 218.564 220.187 214.859 220.193 C212.208 220.201 209.557 220.209 206.906 220.218 C198.94 220.242 190.975 220.257 183.009 220.27 C180.758 220.273 178.507 220.277 176.255 220.281 C162.267 220.307 148.279 220.329 134.291 220.341 C131.052 220.344 127.813 220.347 124.574 220.35 C123.769 220.351 122.964 220.352 122.134 220.352 C109.103 220.365 96.071 220.398 83.04 220.44 C69.651 220.482 56.263 220.506 42.874 220.511 C35.361 220.515 27.848 220.526 20.335 220.559 C13.934 220.587 7.533 220.598 1.132 220.587 C-2.13 220.582 -5.392 220.587 -8.655 220.609 C-12.202 220.632 -15.748 220.624 -19.296 220.608 C-20.312 220.622 -21.329 220.636 -22.377 220.65 C-31.521 220.55 -39.829 217.781 -47 212 C-46.388 207.455 -45.204 203.515 -43.551 199.242 C-43.177 198.269 -43.177 198.269 -42.795 197.275 C-41.973 195.14 -41.143 193.007 -40.312 190.875 C-39.734 189.379 -39.156 187.884 -38.579 186.388 C-37.359 183.232 -36.135 180.077 -34.91 176.923 C-33.295 172.765 -31.692 168.603 -30.094 164.438 C-28.83 161.148 -27.563 157.86 -26.294 154.573 C-25.684 152.99 -25.076 151.407 -24.469 149.824 C-23.616 147.603 -22.758 145.385 -21.898 143.168 C-21.649 142.514 -21.399 141.86 -21.142 141.187 C-19.725 137.552 -18.051 134.312 -16 131 C-15.119 128.726 -14.288 126.433 -13.5 124.125 C-12.183 120.305 -10.877 116.579 -9.125 112.938 C-7.83 109.556 -7.993 108.413 -9 105 C-10.49 102.684 -12.132 100.554 -13.82 98.379 C-16.713 92.546 -12.242 83.341 -10.562 77.375 C-10.25 76.243 -9.937 75.111 -9.615 73.945 C-9.31 72.857 -9.006 71.769 -8.691 70.648 C-8.277 69.166 -8.277 69.166 -7.854 67.654 C-7.087 65.271 -6.134 63.221 -5 61 C-4.593 59.014 -4.268 57.01 -4 55 C-3.829 53.904 -3.657 52.809 -3.48 51.68 C-2.546 39.549 -6.778 30.114 -11.819 19.359 C-12.638 17.607 -12.638 17.607 -13.473 15.82 C-14.235 14.247 -14.235 14.247 -15.012 12.641 C-16 10 -16 10 -15 7 C-12.676 5.644 -10.424 4.455 -8 3.312 C-7.345 2.992 -6.69 2.672 -6.016 2.342 C-1.182 0 -1.182 0 0 0 Z " fill="#72CEF2" transform="translate(408,655)"/></g><g><path d="M0 0 C2.276 2.853 4.102 5.855 5.904 9.025 C10.765 17.508 16.391 24.816 23 32 C23.802 32.884 24.604 33.769 25.43 34.68 C33.073 42.724 41.882 49.331 51.676 54.535 C52.457 54.959 53.238 55.382 54.043 55.818 C55.567 56.632 57.108 57.415 58.666 58.162 C60.796 59.297 62.383 60.204 64 62 C64.63 65.099 64.465 67.886 64 71 C64.883 70.965 65.766 70.93 66.676 70.895 C77.48 70.651 86.247 72.449 96 77 C96 75.68 96 74.36 96 73 C97.209 73.205 98.418 73.41 99.664 73.621 C109.465 75.246 119.071 76.466 129 77 C129 85.91 129 94.82 129 104 C131.475 103.505 131.475 103.505 134 103 C134.04 102.178 134.08 101.355 134.121 100.508 C134.882 92.375 136.855 87.899 142.516 82.023 C147.515 77.951 151.91 76.301 158.281 76.531 C166.747 77.991 172.725 82.985 177.66 89.754 C182.488 97.847 182.257 108.139 180.312 117.207 C179.378 119.93 178.297 122.431 177 125 C176.576 125.861 176.152 126.722 175.715 127.609 C170.774 136.693 163.569 143.115 154 147 C153.031 147.413 152.061 147.825 151.062 148.25 C142.337 150.387 136.664 148.48 129 144 C128.959 145.155 128.918 146.31 128.875 147.5 C126.612 167.015 114.427 183.535 101 197 C100.098 197.946 99.195 198.892 98.266 199.867 C96 202 96 202 94 202 C94.072 203.007 94.144 204.014 94.219 205.051 C94.748 212.907 95.038 220.688 94.938 228.562 C94.795 245.054 96.88 260.932 104.793 275.602 C106 278 106 278 106 280 C66.07 280 26.14 280 -15 280 C-10 267 -10 267 -8 263 C-4.847 251.61 -4.472 240.305 -4.312 228.562 C-4.279 226.848 -4.245 225.134 -4.209 223.42 C-4.125 219.28 -4.058 215.14 -4 211 C-4.763 210.709 -5.526 210.418 -6.312 210.118 C-26.634 201.669 -41.427 181.812 -49.793 162.134 C-55.808 147.173 -56.914 132.277 -57.54 116.303 C-57.676 112.844 -57.85 109.397 -58.116 105.946 C-59.937 81.854 -59.937 81.854 -52.924 73.085 C-49.019 68.937 -44.76 65.368 -40.264 61.881 C-36.969 59.144 -34.416 55.99 -31.875 52.562 C-31.452 52.001 -31.029 51.439 -30.593 50.86 C-29.387 49.246 -28.193 47.623 -27 46 C-26.227 45.01 -25.453 44.02 -24.656 43 C-14.319 29.689 -6.961 15.288 0 0 Z " fill="#FC9AB1" transform="translate(507,230)"/></g><g><path d="M0 0 C16.402 1.256 29.529 7.273 42 18 C43.309 19.089 43.309 19.089 44.645 20.199 C57.542 31.868 61.937 46.873 65.401 63.341 C66.369 67.638 67.622 71.842 68.875 76.062 C71.667 85.576 74.1 95.165 76.464 104.793 C79.828 118.476 83.54 132.042 87.5 145.562 C89.003 150.707 90.503 155.853 92 161 C92.364 162.25 92.728 163.499 93.104 164.787 C95.255 172.228 97.121 179.645 98.777 187.211 C99.934 192.045 101.468 196.757 102.971 201.492 C105.288 208.834 107.377 216.234 109.43 223.654 C110.062 225.934 110.699 228.212 111.338 230.49 C113.626 238.705 115.765 246.932 117.631 255.254 C118.619 259.609 119.847 263.824 121.25 268.062 C123.682 275.616 125.768 283.261 127.759 290.941 C128.122 292.331 128.491 293.72 128.867 295.106 C133.958 313.959 133.186 331.377 124 349 C115.146 363.298 102.281 373.2 86.238 378.164 C72.861 381.237 58.262 380.075 46 374 C45.114 373.577 44.229 373.154 43.316 372.719 C27.66 364.317 21.167 351.264 16 335 C14.846 331.097 13.762 327.176 12.688 323.25 C10.237 314.402 7.748 305.567 5.188 296.75 C4.898 295.745 4.608 294.74 4.309 293.704 C4.036 292.765 3.762 291.827 3.48 290.859 C3.242 290.039 3.004 289.219 2.759 288.374 C2.055 285.98 2.055 285.98 0.918 283.769 C-0.405 279.779 -0.221 276.017 -0.168 271.844 C-0.169 270.007 -0.171 268.169 -0.176 266.332 C-0.177 265.378 -0.178 264.423 -0.178 263.44 C-0.23 246.561 -1.089 232.59 -8 217 C-8 216.01 -8 215.02 -8 214 C-6.571 214.485 -6.571 214.485 -5.113 214.98 C4.967 217.846 19.567 217.708 29 213 C32.819 210.861 36.424 208.522 40 206 C41.052 205.278 42.104 204.556 43.188 203.812 C47.574 199.426 50.71 194.235 54 189 C56.635 191.394 58.312 193.965 60.117 197.023 C60.718 198.034 61.318 199.045 61.937 200.086 C62.576 201.171 63.216 202.257 63.875 203.375 C65.231 205.654 66.587 207.933 67.945 210.211 C68.458 211.072 68.458 211.072 68.981 211.95 C76.373 224.352 84.029 236.589 91.905 248.687 C100.789 262.339 109.383 276.179 118 290 C115.004 283.709 111.529 277.911 107.75 272.062 C107.139 271.109 106.529 270.156 105.9 269.174 C103.293 265.108 100.677 261.049 98.058 256.991 C90.323 245 82.699 232.958 75.312 220.75 C74.6 219.574 73.887 218.397 73.174 217.221 C69.825 211.69 66.492 206.15 63.18 200.598 C62.016 198.669 60.852 196.741 59.688 194.812 C59.166 193.927 58.645 193.042 58.109 192.13 C57.623 191.33 57.137 190.531 56.637 189.707 C56.221 189.011 55.806 188.314 55.378 187.597 C53.698 185.65 52.503 185.366 50 185 C50.118 183.25 50.245 181.5 50.375 179.75 C50.445 178.775 50.514 177.801 50.586 176.797 C50.918 173.748 51.35 170.782 51.863 167.762 C53.793 156.305 55.636 144.833 57.467 133.359 C58.109 129.34 58.755 125.321 59.41 121.304 C60.051 117.376 60.681 113.445 61.304 109.514 C61.54 108.034 61.78 106.555 62.024 105.077 C65.325 89.399 65.325 89.399 62.616 74.317 C60.619 71.608 58.403 69.36 56 67 C54.716 65.704 53.434 64.407 52.152 63.109 C50.081 61.02 48.004 58.94 45.9 56.883 C41.916 52.987 38.165 48.978 34.53 44.754 C32.773 42.74 30.923 40.856 29 39 C26.45 36.538 24.086 33.973 21.766 31.297 C17.207 26.047 12.405 21.036 7.609 16.004 C6.929 15.286 6.248 14.568 5.547 13.828 C4.937 13.188 4.327 12.547 3.698 11.888 C1.981 9.979 0.387 8.164 -1 6 C-0.688 2.75 -0.688 2.75 0 0 Z " fill="#8763FB" transform="translate(698,519)"/></g><g><path d="M0 0 C0.33 0 0.66 0 1 0 C1 20.79 1 41.58 1 63 C1.66 62.67 2.32 62.34 3 62 C7.576 61.322 12.065 60.898 16.188 63.246 C18.265 65.06 20.127 66.975 22 69 C23.52 70.48 25.041 71.959 26.562 73.438 C29.262 76.127 31.811 78.909 34.309 81.785 C37.936 85.958 41.696 89.988 45.5 94 C46.909 95.491 48.318 96.982 49.727 98.473 C50.436 99.223 51.145 99.973 51.876 100.747 C53.932 102.928 55.979 105.116 58.023 107.309 C59.307 108.685 60.591 110.061 61.875 111.438 C62.495 112.102 63.115 112.766 63.753 113.451 C67.302 117.239 70.917 120.931 74.625 124.562 C76.088 126.037 77.547 127.516 79 129 C79.567 129.55 80.134 130.101 80.719 130.668 C85.591 136.15 84.362 143.101 84 150 C83.408 155.453 82.557 160.849 81.664 166.258 C81.421 167.778 81.179 169.299 80.939 170.82 C80.308 174.785 79.664 178.748 79.017 182.711 C78.365 186.722 77.726 190.734 77.086 194.746 C72.174 225.456 72.174 225.456 70.437 235.139 C69.952 238.316 70.115 241.172 70.312 244.375 C70.338 249.969 69.64 253.011 65.891 257.164 C65.267 257.77 64.643 258.376 64 259 C63.335 259.688 62.67 260.377 61.984 261.086 C52.363 270.396 40.532 274.373 27.312 274.25 C26.471 274.258 25.63 274.265 24.764 274.273 C23.545 274.27 23.545 274.27 22.301 274.266 C21.57 274.263 20.84 274.261 20.087 274.259 C17.645 273.956 16.067 273.332 14 272 C12.77 269.102 12.77 269.102 11.812 265.625 C11.327 263.912 11.327 263.912 10.832 262.164 C10.557 261.12 10.283 260.076 10 259 C9.706 257.95 9.706 257.95 9.406 256.879 C7.644 248.73 9.485 240.894 11.577 233.015 C11.758 232.323 11.939 231.631 12.125 230.918 C12.293 230.307 12.46 229.696 12.633 229.067 C13.376 224.882 13.584 222.056 11.484 218.257 C5.97 212.339 1.553 210.439 -6.578 210.004 C-12.162 209.902 -17.73 209.984 -23.312 210.125 C-26.744 210.179 -30.174 210.218 -33.605 210.236 C-35.73 210.25 -37.855 210.287 -39.979 210.349 C-46.034 210.428 -49.376 210.015 -54 206 C-56 204 -56 204 -56.375 200.625 C-56 197 -56 197 -54.617 195.008 C-50.714 192.013 -46.393 190.765 -41.75 189.25 C-40.346 188.776 -40.346 188.776 -38.914 188.293 C-36.613 187.518 -34.308 186.754 -32 186 C-32.727 186.072 -33.454 186.144 -34.203 186.219 C-53.891 188.036 -53.891 188.036 -59.562 185.25 C-63.922 181.226 -65.289 179.238 -65.691 173.098 C-64.539 169.601 -61.995 167.896 -59 166 C-55.116 164.044 -51.139 162.356 -47.125 160.688 C-46.055 160.233 -44.985 159.779 -43.883 159.311 C-41.259 158.198 -38.631 157.095 -36 156 C-37.901 156.104 -37.901 156.104 -39.84 156.211 C-56.093 156.833 -56.093 156.833 -62.602 151.508 C-65.263 148.638 -65.243 145.988 -65.523 142.168 C-64.545 138.116 -61.493 135.922 -58.049 133.795 C-55.765 132.541 -53.455 131.355 -51.125 130.188 C-49.431 129.32 -47.737 128.451 -46.043 127.582 C-45.199 127.152 -44.355 126.723 -43.486 126.28 C-39.133 124.039 -34.837 121.692 -30.545 119.337 C-26.22 117 -26.22 117 -24 117 C-24.349 116.215 -24.699 115.43 -25.059 114.621 C-27.472 109.05 -29.585 104.083 -30 98 C-31.825 97.629 -31.825 97.629 -33.688 97.25 C-37.591 96.281 -40.075 94.836 -43 92 C-44.662 88.676 -44.612 86.673 -44 83 C-39.959 79.2 -35.143 76.946 -30 75 C-30.478 73.229 -30.958 71.458 -31.438 69.688 C-31.704 68.701 -31.971 67.715 -32.246 66.699 C-32.781 64.785 -33.371 62.886 -34 61 C-22.776 59.397 -11.338 60 0 60 C0 40.2 0 20.4 0 0 Z " fill="#FC9AB1" transform="translate(679,460)"/></g><g><path d="M0 0 C0.33 0 0.66 0 1 0 C1.33 33.99 1.66 67.98 2 103 C4.97 99.7 7.94 96.4 11 93 C13.388 90.387 15.78 87.782 18.188 85.188 C18.764 84.559 19.341 83.931 19.936 83.283 C21.072 82.06 22.224 80.851 23.392 79.658 C24.832 78.173 26.197 76.616 27.551 75.051 C34.001 69.925 45.505 72.953 53.199 73.805 C55.318 74.059 57.435 74.326 59.551 74.599 C61.695 74.876 63.84 75.14 65.986 75.402 C72.093 76.158 78.194 76.971 84.27 77.945 C85.097 78.077 85.924 78.209 86.777 78.344 C89.384 79.113 90.989 80.183 93 82 C93.528 84.761 93.186 87.164 93 90 C91.35 90.66 89.7 91.32 88 92 C88 92.99 88 93.98 88 95 C87.67 95.66 87.34 96.32 87 97 C87.99 96.67 88.98 96.34 90 96 C90.672 99.103 91.336 102.208 92 105.312 C92.191 106.194 92.382 107.075 92.578 107.982 C92.759 108.83 92.939 109.678 93.125 110.551 C93.293 111.331 93.46 112.111 93.633 112.915 C94 115 94 115 94 118 C90.7 117.67 87.4 117.34 84 117 C84 117.66 84 118.32 84 119 C84.953 119.182 85.905 119.364 86.887 119.551 C88.141 119.802 89.395 120.054 90.688 120.312 C91.929 120.556 93.17 120.8 94.449 121.051 C98.134 122.036 101.264 123.264 104 126 C104.203 127.961 104.203 127.961 104.25 130.375 C104.276 131.166 104.302 131.958 104.328 132.773 C103.931 135.47 103.075 136.307 101 138 C96.267 136.641 92.649 134.667 88.562 131.938 C87.329 131.127 86.095 130.319 84.859 129.512 C84.226 129.097 83.592 128.683 82.939 128.255 C67.802 117.277 67.802 117.277 50.625 113.062 C47.594 113.846 44.868 114.771 42 116 C41.01 116 40.02 116 39 116 C39.112 111.391 40.385 109.271 43.562 106.125 C44.697 105.071 45.839 104.025 47 103 C42.125 106.92 38.143 111.059 34.25 115.938 C29.17 122.114 24.14 126.261 17 130 C25.306 125.516 33.633 121.062 42.125 116.938 C43.283 116.369 44.44 115.801 45.633 115.215 C50.713 113.382 54.296 113.383 59.375 115.223 C60.593 115.817 61.801 116.432 63 117.062 C63.669 117.406 64.337 117.75 65.026 118.104 C79.648 125.869 95.225 135.225 107 147 C107.375 149.75 107.375 149.75 107 153 C104.562 155.625 104.562 155.625 102 158 C101.295 160.147 101.295 160.147 101 162 C100.34 162.33 99.68 162.66 99 163 C98.23 167.215 97.991 170.812 99 175 C102.589 178.77 106.598 181.224 111 184 C112.891 185.535 112.891 185.535 114 187 C113.928 190.901 113.363 193.385 111.375 196.75 C106.345 201.516 101.32 202.547 94.578 202.371 C90.339 201.761 86.74 200.024 83 198 C83 199.98 83 201.96 83 204 C78.05 206.64 73.1 209.28 68 212 C69.493 216.794 71.088 221.347 73.262 225.875 C81.639 243.416 81.517 256.12 75.688 274.5 C75.243 275.901 74.799 277.302 74.355 278.703 C74.13 279.413 73.905 280.122 73.673 280.854 C73.014 282.956 72.373 285.062 71.738 287.172 C69.269 295.333 66.473 303.196 63 311 C49.44 310.729 37.87 301.379 28.375 292.562 C27.591 291.717 26.808 290.871 26 290 C25.385 289.355 24.77 288.711 24.137 288.047 C18.51 281.986 12.589 275.564 11.5 267.125 C12 264 12 264 13.062 262.062 C15.394 256.934 12.438 249.655 10.801 244.617 C10.581 243.934 10.361 243.251 10.135 242.547 C9.43 240.362 8.715 238.181 8 236 C7.531 234.554 7.063 233.108 6.595 231.661 C5.386 227.927 4.169 224.195 2.951 220.464 C-1.884 205.648 -6.601 190.804 -11.12 175.889 C-12.424 171.608 -13.757 167.335 -15.089 163.062 C-16.31 158.957 -17.339 154.815 -18.34 150.652 C-18.881 148.477 -19.521 146.327 -20.188 144.188 C-21.578 138.732 -21.625 134.097 -19.164 128.934 C-16.082 123.814 -12.132 118.868 -7.643 114.934 C-1.244 108.813 -0.158 103.635 0.114 95.021 C0.186 90.591 0.148 86.168 0.098 81.738 C0.103 79.377 0.113 77.017 0.126 74.656 C0.151 68.472 0.122 62.29 0.082 56.107 C0.05 49.786 0.069 43.464 0.084 37.143 C0.106 24.761 0.071 12.381 0 0 Z " fill="#FC9AB1" transform="translate(325,451)"/></g><g><path d="M0 0 C5.541 2.675 10.145 6.167 14 11 C14.813 14.612 13.996 17.482 13 21 C9.25 36.208 10.068 47.026 14 62 C27.679 65.809 42.177 62.964 54.312 56.188 C60.197 52.441 66.213 47.558 69 41 C69.251 37.291 69.251 37.291 69 34 C73.556 34.525 73.556 34.525 75.491 36.597 C75.901 37.293 76.312 37.99 76.734 38.707 C77.217 39.507 77.7 40.307 78.197 41.131 C78.71 42.016 79.222 42.901 79.75 43.812 C80.582 45.201 80.582 45.201 81.43 46.617 C82.647 48.65 83.857 50.686 85.061 52.726 C88.119 57.89 91.236 63.02 94.352 68.15 C95.444 69.948 96.534 71.747 97.623 73.547 C103.692 83.556 109.938 93.445 116.263 103.294 C119.352 108.106 122.426 112.928 125.5 117.75 C126.064 118.631 126.627 119.512 127.208 120.419 C128.815 122.94 130.41 125.468 132 128 C132.585 128.921 133.17 129.842 133.773 130.791 C134.333 131.69 134.892 132.589 135.469 133.516 C135.979 134.328 136.488 135.14 137.014 135.978 C137.502 136.979 137.502 136.979 138 138 C137.67 138.66 137.34 139.32 137 140 C129.004 127.855 121.103 115.664 113.489 103.275 C110.605 98.586 107.687 93.928 104.688 89.312 C100.359 82.624 96.174 75.848 92 69.062 C91.477 68.212 91.477 68.212 90.943 67.345 C86.093 59.458 81.298 51.542 76.602 43.562 C75.106 40.956 75.106 40.956 73 39 C72.622 39.69 72.245 40.379 71.855 41.09 C65.058 52.695 54.392 61.779 41.281 65.461 C36.784 66.2 32.364 66.33 27.812 66.375 C26.957 66.389 26.101 66.403 25.22 66.417 C24.391 66.411 23.561 66.405 22.707 66.398 C21.969 66.395 21.232 66.392 20.472 66.388 C16.999 65.843 14.192 64.469 11 63 C11.358 63.746 11.358 63.746 11.723 64.507 C21.083 85.056 20.057 105.852 19.724 127.931 C19.675 131.882 19.667 135.832 19.661 139.783 C19.652 143.622 19.627 147.46 19.596 151.298 C19.582 153.115 19.57 154.932 19.562 156.749 C19.448 174.675 19.448 174.675 16 183 C15.288 184.791 15.288 184.791 14.562 186.617 C7.019 202.344 -4.188 212.859 -20.613 219.273 C-27.09 221.245 -33.497 221.148 -40.201 221.147 C-41.334 221.151 -42.467 221.155 -43.634 221.158 C-47.431 221.169 -51.229 221.173 -55.026 221.177 C-57.748 221.183 -60.47 221.19 -63.192 221.197 C-71.36 221.217 -79.528 221.227 -87.696 221.236 C-91.547 221.24 -95.397 221.245 -99.248 221.251 C-112.053 221.268 -124.858 221.282 -137.663 221.289 C-140.983 221.291 -144.303 221.293 -147.623 221.295 C-148.448 221.296 -149.273 221.296 -150.123 221.297 C-163.488 221.305 -176.853 221.33 -190.218 221.363 C-203.951 221.396 -217.685 221.414 -231.418 221.417 C-239.124 221.419 -246.83 221.428 -254.536 221.453 C-261.099 221.475 -267.661 221.483 -274.224 221.474 C-277.569 221.469 -280.914 221.473 -284.259 221.49 C-287.894 221.508 -291.529 221.501 -295.164 221.488 C-296.209 221.499 -297.255 221.51 -298.332 221.521 C-307.422 221.442 -315.356 218.872 -323.188 214.25 C-323.924 213.822 -324.66 213.394 -325.418 212.953 C-325.94 212.639 -326.462 212.324 -327 212 C-327 208.189 -325.791 206.981 -323.562 203.938 C-321.082 200.589 -321.082 200.589 -319 197 C-316.391 198.017 -313.833 199.078 -311.297 200.267 C-304.088 203.567 -298.22 204.72 -290.336 204.628 C-289.226 204.635 -288.116 204.642 -286.973 204.65 C-283.288 204.667 -279.604 204.649 -275.919 204.631 C-273.264 204.636 -270.609 204.643 -267.953 204.653 C-261.51 204.671 -255.068 204.663 -248.625 204.645 C-243.386 204.631 -238.148 204.627 -232.91 204.63 C-231.788 204.631 -231.788 204.631 -230.644 204.632 C-229.125 204.633 -227.606 204.634 -226.087 204.635 C-212.678 204.643 -199.269 204.627 -185.86 204.597 C-172.866 204.568 -159.873 204.561 -146.879 204.576 C-132.706 204.593 -118.534 204.597 -104.361 204.58 C-102.848 204.578 -101.335 204.576 -99.823 204.574 C-99.079 204.573 -98.335 204.572 -97.568 204.571 C-92.338 204.566 -87.108 204.569 -81.879 204.576 C-75.502 204.583 -69.125 204.577 -62.749 204.552 C-59.499 204.539 -56.249 204.535 -52.999 204.544 C-49.469 204.553 -45.94 204.537 -42.41 204.515 C-40.884 204.527 -40.884 204.527 -39.328 204.54 C-28.983 204.42 -19.937 200.624 -12 194 C-1.612 183.304 -0.406 172.038 -0.454 157.8 C-0.445 156.075 -0.435 154.349 -0.423 152.624 C-0.395 147.965 -0.392 143.307 -0.392 138.648 C-0.389 133.77 -0.364 128.892 -0.341 124.014 C-0.3 114.789 -0.28 105.563 -0.267 96.338 C-0.251 85.83 -0.212 75.322 -0.172 64.814 C-0.09 43.209 -0.035 21.605 0 0 Z " fill="#020102" transform="translate(679,670)"/></g><g><path d="M0 0 C0.715 -0.007 1.43 -0.014 2.166 -0.021 C4.55 -0.039 6.933 -0.029 9.316 -0.019 C11.03 -0.026 12.744 -0.035 14.457 -0.045 C19.104 -0.067 23.751 -0.064 28.397 -0.056 C32.279 -0.05 36.161 -0.058 40.043 -0.065 C49.201 -0.082 58.36 -0.078 67.518 -0.062 C76.961 -0.045 86.404 -0.061 95.847 -0.093 C103.96 -0.12 112.073 -0.127 120.187 -0.118 C125.03 -0.114 129.873 -0.116 134.716 -0.136 C139.271 -0.155 143.825 -0.149 148.38 -0.124 C150.049 -0.119 151.718 -0.123 153.388 -0.135 C167.566 -0.234 167.566 -0.234 172.142 2.934 C176.307 7.166 177.013 9.835 177.182 15.765 C177.093 21.394 176.145 24.61 172.58 28.929 C167.857 32.874 163.586 33.891 157.522 33.916 C156.476 33.926 156.476 33.926 155.408 33.936 C153.082 33.955 150.756 33.953 148.43 33.95 C146.758 33.959 145.085 33.97 143.413 33.981 C138.877 34.007 134.342 34.015 129.807 34.016 C126.972 34.019 124.136 34.025 121.301 34.033 C111.404 34.061 101.507 34.073 91.61 34.071 C82.392 34.069 73.176 34.1 63.959 34.148 C56.038 34.187 48.117 34.203 40.195 34.201 C35.468 34.2 30.74 34.209 26.013 34.241 C21.565 34.27 17.119 34.27 12.672 34.248 C11.043 34.245 9.414 34.252 7.786 34.27 C-7.068 34.425 -7.068 34.425 -12.956 29.043 C-16.766 24.769 -17.749 21.751 -17.756 16.015 C-17.775 14.911 -17.794 13.808 -17.814 12.671 C-17.026 7.657 -14.521 5.46 -10.629 2.4 C-6.746 0.189 -4.443 0.01 0 0 Z " fill="#8763FB" transform="translate(449.31809997558594,665.4853363037109)"/></g><g><path d="M0 0 C4.104 4.946 5.243 10.953 6.191 17.133 C6.316 17.894 6.44 18.654 6.568 19.438 C6.96 21.852 7.34 24.268 7.719 26.684 C7.976 28.285 8.235 29.886 8.494 31.486 C9.423 37.237 10.339 42.991 11.25 48.745 C11.424 49.824 11.598 50.903 11.777 52.016 C11.925 52.941 12.072 53.866 12.224 54.82 C12.563 57.031 12.563 57.031 13.656 58.996 C13.886 61.2 14.067 63.41 14.219 65.621 C14.303 66.81 14.386 67.998 14.473 69.223 C14.533 70.138 14.594 71.053 14.656 71.996 C9.405 72.077 4.437 71.827 -0.781 71.121 C-2.184 70.938 -3.586 70.756 -4.988 70.574 C-7.162 70.287 -9.336 69.997 -11.509 69.705 C-15.772 69.138 -20.035 68.624 -24.314 68.2 C-26.27 68.004 -28.223 67.78 -30.176 67.555 C-35.41 67.197 -38.883 67.04 -43.363 69.973 C-45.843 72.208 -48.092 74.535 -50.344 76.996 C-51.334 77.491 -51.334 77.491 -52.344 77.996 C-52.344 52.916 -52.344 27.836 -52.344 1.996 C-9.257 -7.237 -9.257 -7.237 0 0 Z " fill="#8763FB" transform="translate(396.34375,455.00390625)"/></g><g><path d="M0 0 C5.612 3.66 9.531 8.364 11.578 14.824 C13.102 22.683 12.981 30.251 8.555 37.066 C3.842 42.928 -1.945 47.51 -9.586 48.434 C-18.598 48.443 -24.538 48.206 -31.184 41.941 C-37.849 34.896 -39.551 28.972 -39.375 19.324 C-38.61 12.545 -35.647 7.203 -30.688 2.562 C-21.556 -4.384 -10.27 -5.078 0 0 Z " fill="#FEFEFE" transform="translate(535,738)"/></g><g><path d="M0 0 C0 25.08 0 50.16 0 76 C-13.534 76 -13.534 76 -18.5 73.688 C-19.459 73.258 -20.418 72.829 -21.406 72.387 C-23.811 71.101 -25.879 69.706 -28 68 C-27.381 63.324 -26.113 59.284 -24.41 54.891 C-24.15 54.214 -23.89 53.538 -23.622 52.841 C-22.774 50.641 -21.919 48.446 -21.062 46.25 C-20.474 44.731 -19.885 43.211 -19.297 41.691 C-18.403 39.381 -17.509 37.071 -16.612 34.761 C-14.714 29.869 -12.853 24.964 -11.02 20.047 C-10.346 18.252 -10.346 18.252 -9.658 16.421 C-8.818 14.182 -7.986 11.941 -7.16 9.696 C-6.785 8.703 -6.41 7.71 -6.023 6.688 C-5.703 5.825 -5.382 4.963 -5.052 4.074 C-3.962 1.926 -2.751 0 0 0 Z " fill="#FEFEFE" transform="translate(389,799)"/></g><g><path d="M0 0 C0.99 0.33 1.98 0.66 3 1 C1.924 1.496 0.847 1.993 -0.262 2.504 C-15.065 8.396 -15.065 8.396 -28 17 C-28.501 19.873 -28.501 19.873 -28 23 C-24.216 27.394 -19.472 28.094 -14 29 C-13.807 29.736 -13.613 30.472 -13.414 31.23 C-13.154 32.206 -12.893 33.182 -12.625 34.188 C-12.37 35.15 -12.115 36.113 -11.852 37.105 C-11.055 39.998 -11.055 39.998 -9.898 42.676 C-9 45 -9 45 -9 48 C-8.082 47.567 -7.164 47.134 -6.219 46.688 C5.872 41.145 5.872 41.145 13 42 C13 37.05 13 32.1 13 27 C19.917 25.353 19.917 25.353 22.691 27.01 C24.263 28.53 25.634 30.106 27 31.812 C27.733 32.653 27.733 32.653 28.48 33.51 C32 37.636 32 37.636 32 40 C32.889 40.375 32.889 40.375 33.797 40.758 C36.295 42.166 37.498 43.621 39.25 45.875 C42.743 50.042 46.018 51.902 51 54 C47.2 55.267 45.892 54.502 42.16 53.164 C41.015 52.759 39.869 52.355 38.689 51.938 C37.493 51.504 36.296 51.071 35.062 50.625 C32.7 49.783 30.336 48.941 27.973 48.102 C26.923 47.723 25.874 47.345 24.793 46.956 C13.981 43.257 4.044 44.153 -6.242 49.031 C-11.278 51.626 -16.233 54.374 -21.158 57.172 C-26.929 60.449 -32.791 63.466 -38.787 66.312 C-42.598 68.156 -45.942 70.05 -49 73 C-49.584 76.346 -49.83 77.872 -49 81 C-46.872 83.919 -46.205 84.738 -43 86 C-38.616 86.604 -34.402 86.332 -30 86 C-28.076 85.892 -28.076 85.892 -26.113 85.781 C-16.651 85.069 -8.239 82.736 0.605 79.301 C7.433 76.761 12.664 76.617 19.609 78.832 C20.316 79.156 21.022 79.479 21.75 79.812 C27.685 82.368 33.808 84.175 40 86 C40 86.66 40 87.32 40 88 C34.62 86.768 29.284 85.489 24.074 83.652 C23.418 83.421 22.761 83.19 22.084 82.952 C20.2 82.277 18.323 81.584 16.445 80.891 C12.73 79.93 10.684 80.073 7 81 C6.117 81.214 5.234 81.428 4.324 81.648 C3.454 81.888 2.584 82.128 1.688 82.375 C0.825 82.61 -0.037 82.844 -0.926 83.086 C-8.373 85.3 -15.278 87.937 -22.25 91.375 C-28.883 94.594 -35.474 97.48 -42.434 99.93 C-45.058 101.024 -46.956 102.018 -49 104 C-49.727 107.369 -49.555 110.891 -48 114 C-45.975 114.652 -45.975 114.652 -44 115 C-44 115.66 -44 116.32 -44 117 C-34.771 117.238 -25.696 116.942 -16.5 116.125 C-15.581 116.047 -14.663 115.968 -13.716 115.887 C-8.285 115.373 -3.272 114.387 2 113 C13.527 111.093 24.38 116.072 35 120 C35 120.66 35 121.32 35 122 C29.213 120.496 23.597 118.86 18 116.75 C9.717 113.953 2.407 115.105 -5.637 118.184 C-8.319 119.11 -11.044 119.754 -13.799 120.427 C-17.63 121.425 -21.372 122.681 -25.125 123.938 C-26.283 124.316 -26.283 124.316 -27.465 124.701 C-31.829 126.155 -36.005 127.68 -40 130 C-41.326 132.379 -41.326 132.379 -41 135 C-39.111 137.519 -37.745 138.752 -34.75 139.75 C-34.173 139.832 -33.595 139.915 -33 140 C-33 140.66 -33 141.32 -33 142 C-36.367 141.694 -38.562 141.3 -41.375 139.375 C-43.652 136.046 -43.564 133.949 -43 130 C-39.606 125.156 -34.119 124.002 -28.75 122.25 C-27.814 121.934 -26.878 121.618 -25.914 121.293 C-23.613 120.518 -21.308 119.754 -19 119 C-20.091 119.108 -20.091 119.108 -21.203 119.219 C-40.891 121.036 -40.891 121.036 -46.562 118.25 C-50.922 114.226 -52.289 112.238 -52.691 106.098 C-51.539 102.601 -48.995 100.896 -46 99 C-42.116 97.044 -38.139 95.356 -34.125 93.688 C-33.055 93.233 -31.985 92.779 -30.883 92.311 C-28.259 91.198 -25.631 90.095 -23 89 C-24.901 89.104 -24.901 89.104 -26.84 89.211 C-43.093 89.833 -43.093 89.833 -49.602 84.508 C-52.263 81.638 -52.243 78.988 -52.523 75.168 C-51.545 71.116 -48.493 68.922 -45.049 66.795 C-42.765 65.541 -40.455 64.355 -38.125 63.188 C-36.431 62.32 -34.737 61.451 -33.043 60.582 C-32.199 60.152 -31.355 59.723 -30.486 59.28 C-26.133 57.039 -21.837 54.692 -17.545 52.337 C-13.22 50 -13.22 50 -11 50 C-11.349 49.215 -11.699 48.43 -12.059 47.621 C-14.472 42.05 -16.585 37.083 -17 31 C-18.217 30.753 -19.434 30.505 -20.688 30.25 C-24.591 29.281 -27.075 27.836 -30 25 C-31.662 21.676 -31.612 19.673 -31 16 C-25.512 11.018 -18.294 8.087 -11.562 5.188 C-9.793 4.41 -8.023 3.633 -6.254 2.855 C-5.484 2.522 -4.714 2.188 -3.92 1.844 C-2.598 1.263 -1.292 0.646 0 0 Z " fill="#2F232F" transform="translate(666,527)"/></g><g><path d="M0 0 C2.139 3.636 2.852 7.47 3.625 11.562 C3.826 12.571 3.826 12.571 4.031 13.6 C4.586 16.452 5 19.087 5 22 C1.7 21.67 -1.6 21.34 -5 21 C-5 21.66 -5 22.32 -5 23 C-4.047 23.182 -3.095 23.364 -2.113 23.551 C-0.859 23.802 0.395 24.054 1.688 24.312 C2.929 24.556 4.17 24.8 5.449 25.051 C9.134 26.036 12.264 27.264 15 30 C15.203 31.961 15.203 31.961 15.25 34.375 C15.276 35.166 15.302 35.958 15.328 36.773 C14.931 39.47 14.075 40.307 12 42 C7.267 40.641 3.649 38.667 -0.438 35.938 C-1.671 35.127 -2.905 34.319 -4.141 33.512 C-4.774 33.097 -5.408 32.683 -6.061 32.255 C-21.198 21.277 -21.198 21.277 -38.375 17.062 C-41.406 17.846 -44.132 18.771 -47 20 C-47.99 20 -48.98 20 -50 20 C-50 15.532 -48.595 13.083 -45.695 9.863 C-40.556 4.896 -35.77 4.795 -28.875 4.688 C-26.652 4.585 -24.429 4.476 -22.207 4.359 C-20.609 4.283 -20.609 4.283 -18.979 4.205 C-12.666 3.771 -5.698 2.849 0 0 Z " fill="#8763FB" transform="translate(414,547)"/></g><g><path d="M0 0 C4.852 4.852 6.839 10.387 7.867 17.016 C9.158 25.053 10.595 33.062 12.032 41.073 C12.501 43.693 12.967 46.312 13.434 48.932 C13.737 50.625 14.04 52.318 14.344 54.012 C14.48 54.781 14.617 55.55 14.757 56.342 C15.586 60.943 16.537 65.497 17.609 70.048 C18.079 72.394 18.154 74.614 18 77 C18.639 77.289 19.279 77.577 19.938 77.875 C22 79 22 79 23 81 C23.133 82.875 23.133 82.875 23.125 85 C23.129 86.052 23.129 86.052 23.133 87.125 C23 89 23 89 22 91 C22.133 98.035 22.992 104.936 24.598 111.781 C25.041 114.227 25.066 116.52 25 119 C26.361 119.371 26.361 119.371 27.75 119.75 C31.304 121.117 32.889 121.834 35 125 C35.686 129.185 35.853 132.738 33.438 136.312 C32.963 136.869 32.489 137.426 32 138 C32.157 140.592 32.572 141.62 34.52 143.348 C36.874 145.976 36.587 148.367 36.504 151.77 C35.626 155.655 33.251 156.9 30 159 C30 158.01 30 157.02 30 156 C30.66 155.402 31.32 154.804 32 154.188 C34.261 152.132 34.261 152.132 34.391 149.117 C34.274 145.96 34.274 145.96 32.297 143.902 C7.858 123.629 7.858 123.629 -20.766 113.607 C-26.02 114.531 -30.776 117.374 -35.5 119.75 C-36.602 120.289 -37.704 120.828 -38.84 121.383 C-43.365 123.61 -47.833 125.853 -52.156 128.453 C-53.095 128.964 -54.033 129.474 -55 130 C-55.66 129.67 -56.32 129.34 -57 129 C-55.749 128.308 -55.749 128.308 -54.473 127.602 C-46.529 122.997 -40.826 118.206 -35 111 C-33.737 109.493 -32.467 107.993 -31.188 106.5 C-30.665 105.871 -30.143 105.242 -29.605 104.594 C-27.867 102.868 -26.236 101.97 -24 101 C-24.398 101.424 -24.797 101.848 -25.207 102.285 C-28.859 106.328 -31.122 109.887 -33 115 C-32.299 114.7 -31.598 114.399 -30.875 114.09 C-29.926 113.71 -28.978 113.329 -28 112.938 C-27.072 112.555 -26.144 112.172 -25.188 111.777 C-17.981 110.02 -12.451 112.302 -6.25 115.75 C-5.177 116.329 -5.177 116.329 -4.083 116.92 C2.924 120.789 9.602 125.167 16.224 129.657 C20.39 132.454 24.073 134.734 29 136 C31.392 133.608 31.346 132.849 31.438 129.562 C31.497 128.389 31.497 128.389 31.559 127.191 C31.186 124.807 31.186 124.807 28.93 123.352 C25.569 121.801 22.26 120.781 18.688 119.812 C16.806 119.296 16.806 119.296 14.887 118.77 C13.934 118.516 12.981 118.262 12 118 C12 117.34 12 116.68 12 116 C15.3 116.33 18.6 116.66 22 117 C20.35 110.07 18.7 103.14 17 96 C15.68 96.33 14.36 96.66 13 97 C13.99 95.68 14.98 94.36 16 93 C13.36 92.67 10.72 92.34 8 92 C8 91.67 8 91.34 8 91 C13.94 90.01 13.94 90.01 20 89 C20 86.36 20 83.72 20 81 C13.254 77.465 6.234 76.821 -1.25 75.875 C-2.509 75.706 -3.769 75.537 -5.066 75.363 C-12.366 74.401 -19.661 73.591 -27 73 C-28.908 72.83 -28.908 72.83 -30.855 72.656 C-36.874 72.374 -41.002 72.222 -45.688 76.312 C-46.823 77.513 -47.93 78.741 -49 80 C-50.582 81.73 -50.582 81.73 -52 83 C-52.66 83 -53.32 83 -54 83 C-54 57.26 -54 31.52 -54 5 C-53.67 5 -53.34 5 -53 5 C-52.67 29.75 -52.34 54.5 -52 80 C-49.36 77.36 -46.72 74.72 -44 72 C-36.016 66.677 -21.529 70.362 -12.375 71.375 C-10.546 71.564 -10.546 71.564 -8.68 71.758 C-1.066 72.571 6.464 73.648 14 75 C13.692 72.874 13.378 70.75 13.062 68.625 C12.801 66.85 12.801 66.85 12.535 65.039 C12.165 62.093 12.165 62.093 11 60 C10.672 58.346 10.387 56.684 10.121 55.02 C9.947 53.94 9.773 52.861 9.593 51.749 C9.397 50.512 9.202 49.275 9 48 C8.157 42.698 7.309 37.398 6.45 32.098 C6.19 30.483 5.934 28.866 5.68 27.25 C5.307 24.877 4.922 22.507 4.535 20.137 C4.371 19.066 4.371 19.066 4.203 17.974 C3.252 12.262 1.891 5.694 -3 2.062 C-11.274 -2.956 -23.33 0.562 -32.312 1.938 C-34.166 2.211 -34.166 2.211 -36.057 2.49 C-41.38 3.28 -46.694 4.105 -52 5 C-52.33 4.01 -52.66 3.02 -53 2 C-9.884 -7.017 -9.884 -7.017 0 0 Z " fill="#161222" transform="translate(397,452)"/></g><g><path d="M0 0 C0.984 0.289 1.967 0.577 2.98 0.875 C11.364 3.176 19.291 4.387 28 4.375 C28.859 4.376 29.718 4.378 30.602 4.379 C36.298 4.282 41.488 3.384 47 2 C48.853 1.618 50.707 1.241 52.562 0.875 C53.409 0.707 54.256 0.54 55.129 0.367 C55.746 0.246 56.364 0.125 57 0 C56.859 7.614 53.932 12.292 49 18 C42.181 24.443 34.424 25.493 25.281 25.305 C17.071 24.542 11.254 21.242 5.695 15.223 C2.07 10.469 0 5.991 0 0 Z " fill="#FEFEFE" transform="translate(509,389)"/></g><g><path d="M0 0 C2.182 2.182 2.641 3.443 3.586 6.332 C3.875 7.207 4.164 8.082 4.462 8.984 C4.764 9.917 5.065 10.851 5.375 11.812 C5.685 12.762 5.995 13.712 6.315 14.69 C6.933 16.589 7.548 18.489 8.16 20.391 C8.87 22.596 9.589 24.799 10.312 27 C15.035 41.723 15.035 41.723 13.062 46.062 C12.712 46.702 12.361 47.341 12 48 C11.042 53.99 13.002 57.53 16.133 62.43 C18.668 65.919 21.486 69.068 24.461 72.188 C26 74 26 74 26 76 C26.57 76.254 27.14 76.508 27.727 76.77 C30.27 78.146 32.192 79.792 34.375 81.688 C42.247 88.069 51.635 93.793 62 94 C63.32 90.37 64.64 86.74 66 83 C70.008 86.674 72.56 90.121 75 95 C75 95.99 75 96.98 75 98 C54.709 99.316 39.602 89.645 24.711 77.066 C15.708 68.727 8.603 56.695 5 45 C5 43.68 5 42.36 5 41 C4.34 41 3.68 41 3 41 C2.726 41.737 2.451 42.474 2.168 43.233 C1.075 45.822 -0.134 47.945 -1.695 50.273 C-2.509 51.493 -2.509 51.493 -3.34 52.737 C-3.929 53.607 -4.518 54.478 -5.125 55.375 C-5.742 56.294 -6.36 57.213 -6.996 58.16 C-15.4 70.623 -24.037 82.924 -32.668 95.23 C-33.254 96.066 -33.84 96.902 -34.444 97.763 C-35.595 99.405 -36.747 101.047 -37.9 102.688 C-40.839 106.88 -43.749 111.089 -46.621 115.328 C-47.503 116.629 -47.503 116.629 -48.404 117.956 C-49.519 119.605 -50.631 121.257 -51.739 122.911 C-54.244 126.614 -56.652 129.989 -60 133 C-58.473 128.552 -56.063 124.936 -53.375 121.125 C-52.901 120.444 -52.426 119.762 -51.938 119.061 C-50.879 117.542 -49.819 116.025 -48.757 114.509 C-46.185 110.836 -43.627 107.154 -41.067 103.472 C-39.681 101.479 -38.293 99.485 -36.906 97.493 C-32.662 91.397 -28.438 85.289 -24.24 79.161 C-21.47 75.122 -18.678 71.099 -15.875 67.082 C-15.152 66.046 -14.43 65.011 -13.686 63.943 C-12.256 61.895 -10.825 59.849 -9.393 57.803 C-8.737 56.864 -8.082 55.925 -7.406 54.957 C-6.822 54.121 -6.237 53.286 -5.635 52.425 C-5.095 51.625 -4.556 50.825 -4 50 C-3.445 49.286 -2.891 48.572 -2.319 47.836 C-0.314 43.526 -0.52 39.368 -0.488 34.668 C-0.47 33.676 -0.452 32.684 -0.434 31.663 C-0.38 28.504 -0.346 25.346 -0.312 22.188 C-0.279 20.042 -0.245 17.897 -0.209 15.752 C-0.124 10.501 -0.056 5.251 0 0 Z " fill="#161222" transform="translate(326,667)"/></g><g><path d="M0 0 C4.443 1.296 8.511 3.026 12.691 4.996 C23.13 9.882 23.13 9.882 34.504 11.184 C35.656 11.166 36.809 11.148 37.996 11.129 C39.299 11.094 39.299 11.094 40.629 11.059 C40.299 11.719 39.969 12.379 39.629 13.059 C38.754 17.277 38.55 20.867 39.629 25.059 C43.226 28.819 47.228 31.284 51.629 34.059 C53.52 35.594 53.52 35.594 54.629 37.059 C54.557 40.96 53.992 43.444 52.004 46.809 C47.002 51.547 42.158 52.497 35.491 52.417 C30.041 51.734 25.259 49.288 20.316 46.996 C18.222 46.035 16.122 45.085 14.016 44.148 C13.1 43.724 12.184 43.3 11.241 42.863 C6.798 41.495 3.077 43.158 -1.184 44.621 C-1.974 44.891 -2.764 45.16 -3.578 45.438 C-4.17 45.642 -4.761 45.847 -5.371 46.059 C-2.21 42.768 0.843 40.258 5.598 39.918 C12.48 40.367 18.393 43.325 24.629 46.059 C32.162 49.167 39.258 50.62 47.129 47.809 C49.746 45.977 50.816 45.13 51.629 42.059 C51.085 36.79 48.922 35.104 44.988 31.875 C24.026 14.787 24.026 14.787 -0.824 7.492 C-8.471 9.193 -16.057 11.506 -23.176 14.789 C-26.371 16.059 -26.371 16.059 -29.371 15.059 C-28.832 14.782 -28.293 14.505 -27.738 14.22 C-25.259 12.943 -22.784 11.657 -20.309 10.371 C-19.461 9.936 -18.613 9.501 -17.74 9.053 C-13.784 6.991 -10.162 4.972 -6.688 2.164 C-3.371 0.059 -3.371 0.059 0 0 Z " fill="#2D1E5B" transform="translate(384.37109375,600.94140625)"/></g><g><path d="M0 0 C46.2 0 92.4 0 140 0 C140 0.99 140 1.98 140 3 C94.13 3 48.26 3 1 3 C0.67 2.01 0.34 1.02 0 0 Z " fill="#B59AF4" transform="translate(465,537)"/></g><g><path d="M0 0 C2.185 1.786 3.978 3.41 5.25 5.953 C5.631 9.993 5.674 12.246 3.562 15.766 C-1.186 20.257 -5.467 20.152 -11.738 20.023 C-12.402 20 -13.066 19.977 -13.75 19.953 C-13.75 21.933 -13.75 23.913 -13.75 25.953 C-14.08 25.953 -14.41 25.953 -14.75 25.953 C-14.832 24.716 -14.915 23.478 -15 22.203 C-15.472 18.143 -16.761 16.743 -19.75 13.953 C-19.564 10.879 -18.501 9.579 -16.75 6.953 C-16.356 4.629 -16.015 2.295 -15.75 -0.047 C-14.76 -0.047 -13.77 -0.047 -12.75 -0.047 C-12.173 -0.212 -11.595 -0.377 -11 -0.547 C-7.179 -1.396 -3.506 -2.098 0 0 Z " fill="#9E77F7" transform="translate(447.75,579.046875)"/></g><g><path d="M0 0 C2.701 1.459 5.214 2.986 7.719 4.758 C8.478 5.277 9.237 5.797 10.02 6.332 C10.58 6.803 11.141 7.273 11.719 7.758 C11.719 8.418 11.719 9.078 11.719 9.758 C10.529 9.757 9.339 9.756 8.114 9.754 C3.659 9.758 -0.795 9.801 -5.249 9.855 C-7.169 9.874 -9.09 9.881 -11.01 9.878 C-26.321 9.493 -26.321 9.493 -39.281 16.758 C-40.316 18.064 -41.326 19.392 -42.281 20.758 C-42.644 15.313 -42.644 15.313 -41.219 13.133 C-38.987 11.549 -36.639 10.244 -34.242 8.93 C-31.438 7.254 -28.923 5.256 -26.371 3.223 C-18.449 -2.33 -9.143 -3.461 0 0 Z " fill="#DFDAFC" transform="translate(455.28125,501.2421875)"/></g><g><path d="M0 0 C1.879 1.773 3.559 3.503 5.25 5.438 C5.709 5.941 6.168 6.444 6.641 6.963 C10 10.727 10 10.727 10 13 C10.593 13.25 11.186 13.5 11.797 13.758 C14.295 15.166 15.498 16.621 17.25 18.875 C20.743 23.042 24.018 24.902 29 27 C25.274 28.242 24.176 27.582 20.547 26.234 C19.459 25.84 18.371 25.445 17.25 25.039 C16.095 24.614 14.94 24.188 13.75 23.75 C4.223 20.331 -4.97 17.44 -15 16 C-15 15.67 -15 15.34 -15 15 C-13.02 15 -11.04 15 -9 15 C-9 10.05 -9 5.1 -9 0 C-2.779 -1.244 -2.779 -1.244 0 0 Z " fill="#020102" transform="translate(688,554)"/></g><g><path d="M0 0 C3.111 1.644 5.289 3.03 7.375 5.875 C8.696 10.366 8.484 13.101 6.25 17.25 C2.903 21.341 1.366 21.824 -3.875 22.5 C-7.164 22.395 -8.995 21.705 -11.5 19.562 C-14.324 16.29 -14.815 13.44 -14.535 9.188 C-13.623 5.458 -11.761 3.63 -9 1 C-5.89 -0.555 -3.437 -0.286 0 0 Z " fill="#9E77F7" transform="translate(445,533)"/></g><g><path d="M0 0 C1.68 0.973 1.68 0.973 2.68 1.973 C2.751 3.492 2.764 5.014 2.742 6.535 C2.733 7.361 2.724 8.188 2.715 9.039 C2.703 9.677 2.692 10.315 2.68 10.973 C1.685 10.814 0.689 10.656 -0.336 10.492 C-10.453 9.061 -19.841 8.991 -29.281 13.098 C-31.32 13.973 -31.32 13.973 -33.32 13.973 C-33.82 10.91 -33.82 10.91 -33.32 6.973 C-24.748 -3.738 -11.993 -5.954 0 0 Z " fill="#020102" transform="translate(501.3203125,291.02734375)"/></g><g><path d="M0 0 C0.66 0.33 1.32 0.66 2 1 C1.277 1.654 1.277 1.654 0.539 2.32 C-3.324 5.963 -5.824 8.643 -7 14 C-6.299 13.7 -5.598 13.399 -4.875 13.09 C-3.452 12.519 -3.452 12.519 -2 11.938 C-1.072 11.555 -0.144 11.172 0.812 10.777 C8.019 9.02 13.549 11.302 19.75 14.75 C20.465 15.136 21.18 15.522 21.917 15.92 C28.924 19.789 35.602 24.167 42.224 28.657 C46.39 31.454 50.073 33.734 55 35 C57.392 32.608 57.346 31.849 57.438 28.562 C57.477 27.78 57.517 26.998 57.559 26.191 C57.186 23.807 57.186 23.807 54.93 22.352 C51.569 20.801 48.26 19.781 44.688 18.812 C43.433 18.468 42.179 18.124 40.887 17.77 C39.934 17.516 38.981 17.262 38 17 C38 16.34 38 15.68 38 15 C42.95 15.495 42.95 15.495 48 16 C47.505 14.515 47.505 14.515 47 13 C46.872 10.326 46.956 7.679 47 5 C50.094 8.094 50.937 11.552 51.125 15.875 C51.084 16.576 51.043 17.278 51 18 C51.908 18.247 52.815 18.495 53.75 18.75 C57.304 20.117 58.889 20.834 61 24 C61.686 28.185 61.853 31.738 59.438 35.312 C58.963 35.869 58.489 36.426 58 37 C58.157 39.592 58.572 40.62 60.52 42.348 C62.874 44.976 62.587 47.367 62.504 50.77 C61.626 54.655 59.251 55.9 56 58 C56 57.01 56 56.02 56 55 C56.66 54.402 57.32 53.804 58 53.188 C60.261 51.132 60.261 51.132 60.391 48.117 C60.274 44.96 60.274 44.96 58.297 42.902 C33.858 22.629 33.858 22.629 5.234 12.607 C-0.02 13.531 -4.776 16.374 -9.5 18.75 C-10.602 19.289 -11.704 19.828 -12.84 20.383 C-17.365 22.61 -21.833 24.853 -26.156 27.453 C-27.095 27.964 -28.033 28.474 -29 29 C-29.66 28.67 -30.32 28.34 -31 28 C-30.166 27.539 -29.332 27.077 -28.473 26.602 C-20.523 21.994 -14.842 17.197 -9 10 C-7.693 8.495 -6.381 6.995 -5.062 5.5 C-4.245 4.556 -4.245 4.556 -3.41 3.594 C-2.316 2.357 -1.168 1.168 0 0 Z " fill="#161222" transform="translate(371,553)"/></g><g><path d="M0 0 C0.074 5.66 0.129 11.32 0.165 16.98 C0.18 18.906 0.2 20.833 0.226 22.759 C0.263 25.525 0.28 28.289 0.293 31.055 C0.308 31.919 0.324 32.784 0.34 33.675 C0.341 36.101 0.341 36.101 0 40 C-0.99 40.66 -1.98 41.32 -3 42 C-3.352 41.031 -3.704 40.061 -4.066 39.062 C-4.564 37.708 -5.063 36.354 -5.562 35 C-5.826 34.288 -6.089 33.575 -6.36 32.841 C-8.618 26.822 -11.159 20.956 -13.903 15.143 C-16.108 10.323 -16.108 10.323 -15 7 C-12.676 5.644 -10.424 4.455 -8 3.312 C-7.345 2.992 -6.69 2.672 -6.016 2.342 C-1.182 0 -1.182 0 0 0 Z " fill="#0C0A0B" transform="translate(408,655)"/></g><g><path d="M0 0 C0.33 0 0.66 0 1 0 C1.33 21.12 1.66 42.24 2 64 C-7 67 -7 67 -10.875 67.875 C-15.374 68.923 -19.359 70.937 -23.484 72.977 C-26 74 -26 74 -30 74 C-30.205 73.313 -30.41 72.626 -30.621 71.918 C-30.891 71.017 -31.16 70.116 -31.438 69.188 C-31.704 68.294 -31.971 67.401 -32.246 66.48 C-32.804 64.645 -33.393 62.82 -34 61 C-22.776 59.397 -11.338 60 0 60 C0 40.2 0 20.4 0 0 Z " fill="#8366D3" transform="translate(679,460)"/></g><g><path d="M0 0 C0.33 0 0.66 0 1 0 C1 26.73 1 53.46 1 81 C84.82 81 168.64 81 255 81 C255 81.33 255 81.66 255 82 C170.85 82 86.7 82 0 82 C-0.33 57.25 -0.66 32.5 -1 7 C-1.99 7.495 -1.99 7.495 -3 8 C-1.125 1.125 -1.125 1.125 0 0 Z " fill="#8BDEEE" transform="translate(389,793)"/></g><g><path d="M0 0 C2.657 1.426 4.664 3.053 7 5 C4.327 17.407 4.327 17.407 -1 21 C-4.883 21.728 -6.413 21.373 -9.75 19.25 C-12.804 16.196 -13.817 14.403 -14.375 10.125 C-13.901 6.178 -12.443 4.09 -10 1 C-6.764 -0.618 -3.497 -0.59 0 0 Z " fill="#0C0A0B" transform="translate(592,318)"/></g><g><path d="M0 0 C35.97 0 71.94 0 109 0 C109 0.99 109 1.98 109 3 C73.03 3 37.06 3 0 3 C0 2.01 0 1.02 0 0 Z " fill="#B59AF4" transform="translate(465,637)"/></g><g><path d="M0 0 C5.538 3.077 5.538 3.077 7 6 C7.421 9.059 7.49 11.948 7 15 C4.562 18 4.562 18 2 20 C1.67 20.33 1.34 20.66 1 21 C-1.333 21.041 -3.667 21.042 -6 21 C-6.309 19.917 -6.309 19.917 -6.625 18.812 C-8.018 15.963 -8.723 15.324 -11.188 13.562 C-12.116 12.717 -13.044 11.871 -14 11 C-14.156 7.179 -13.51 5.609 -11.062 2.688 C-7.346 -0.353 -4.783 -0.399 0 0 Z " fill="#9E77F7" transform="translate(445,621)"/></g><g><path d="M0 0 C2.989 0.498 4.921 0.835 7.375 2.562 C9.848 6.272 9.922 9.261 9.375 13.562 C7.769 17.177 5.949 19.775 2.375 21.562 C-2.262 21.647 -4.082 21.048 -7.562 17.938 C-10.022 13.914 -10.518 12.191 -9.625 7.562 C-7.174 3.143 -5.078 0.788 0 0 Z " fill="#0C0A0B" transform="translate(492.625,317.4375)"/></g><g><path d="M0 0 C4.556 0.525 4.556 0.525 6.491 2.597 C6.901 3.293 7.312 3.99 7.734 4.707 C8.217 5.507 8.7 6.307 9.197 7.131 C9.966 8.458 9.966 8.458 10.75 9.812 C11.304 10.738 11.859 11.664 12.43 12.617 C13.647 14.65 14.857 16.686 16.061 18.726 C19.119 23.89 22.236 29.02 25.352 34.15 C26.444 35.948 27.534 37.747 28.623 39.547 C34.692 49.556 40.938 59.445 47.263 69.294 C50.352 74.106 53.426 78.928 56.5 83.75 C57.064 84.631 57.627 85.512 58.208 86.419 C59.815 88.94 61.41 91.468 63 94 C63.878 95.382 63.878 95.382 64.773 96.791 C65.333 97.69 65.892 98.589 66.469 99.516 C66.979 100.328 67.488 101.14 68.014 101.978 C68.339 102.645 68.665 103.312 69 104 C68.67 104.66 68.34 105.32 68 106 C60.004 93.855 52.103 81.664 44.489 69.275 C41.605 64.586 38.687 59.928 35.688 55.312 C31.359 48.624 27.174 41.848 23 35.062 C22.651 34.496 22.302 33.929 21.943 33.345 C17.093 25.458 12.298 17.542 7.602 9.562 C6.106 6.956 6.106 6.956 4 5 C3.622 5.69 3.245 6.379 2.855 7.09 C-4.069 18.911 -14.757 27.719 -28.023 31.539 C-33.997 32.464 -40.026 31.661 -46 31 C-46 30.67 -46 30.34 -46 30 C-45.129 29.974 -44.257 29.948 -43.359 29.922 C-28.345 29.207 -14.853 24.912 -4.406 13.652 C-0.46 9.016 0.361 6.139 0 0 Z " fill="#1C163D" transform="translate(748,704)"/></g><g><path d="M0 0 C0.99 0 1.98 0 3 0 C3 33.33 3 66.66 3 101 C2.01 101 1.02 101 0 101 C0 67.67 0 34.34 0 0 Z " fill="#020102" transform="translate(508,923)"/></g><g><path d="M0 0 C0.99 0 1.98 0 3 0 C3 33.33 3 66.66 3 101 C2.01 101 1.02 101 0 101 C0 67.67 0 34.34 0 0 Z " fill="#020102" transform="translate(552,923)"/></g><g><path d="M0 0 C3.545 0.828 6.884 2.016 10.293 3.281 C24.5 7.053 42.115 6.554 55.633 0.898 C58 0 58 0 61 0 C61.419 7.96 59.851 13.004 54.75 19.125 C48.94 25.437 43.266 29.379 34.555 30.406 C24.327 30.667 16.706 28.93 8.844 22.137 C3.868 16.876 -0.205 10.355 -0.25 2.938 C-0.168 1.968 -0.085 0.999 0 0 Z M2 3 C2.502 11.034 5.983 16.361 11.812 21.812 C19.597 28.15 27.091 28.895 37 28 C44.722 26.448 51.52 21.587 55.938 15.125 C58.248 11.108 58.754 7.595 59 3 C57.521 3.29 56.041 3.582 54.562 3.875 C53.739 4.037 52.915 4.2 52.066 4.367 C50.373 4.717 48.681 5.081 47.004 5.506 C41.199 6.937 35.72 7.348 29.75 7.312 C28.377 7.309 28.377 7.309 26.977 7.306 C19.617 7.198 13.062 6.133 6 4 C4.668 3.66 3.336 3.324 2 3 Z " fill="#2F232F" transform="translate(507,386)"/></g><g><path d="M0 0 C31.02 0 62.04 0 94 0 C94 0.99 94 1.98 94 3 C62.98 3 31.96 3 0 3 C0 2.01 0 1.02 0 0 Z " fill="#B59AF4" transform="translate(465,580)"/></g><g><path d="M0 0 C30.69 0 61.38 0 93 0 C93 0.99 93 1.98 93 3 C62.31 3 31.62 3 0 3 C0 2.01 0 1.02 0 0 Z " fill="#B59AF4" transform="translate(466,550)"/></g><g><path d="M0 0 C2.899 1.881 4.003 3.298 5.312 6.5 C5.238 10.144 4.793 11.904 2.5 14.75 C-2.312 18.6 -5.58 18.985 -11.688 18.5 C-13.688 17.5 -13.688 17.5 -14.688 15.5 C-15.147 12.334 -15.411 10.507 -14.688 7.5 C-12.594 5.257 -11.213 4.03 -8.688 2.5 C-7.677 1.861 -6.666 1.221 -5.625 0.562 C-2.688 -0.5 -2.688 -0.5 0 0 Z " fill="#8763FB" transform="translate(630.6875,592.5)"/></g><g><path d="M0 0 C2.966 2.372 3.022 4.156 3.562 7.938 C3.415 11.54 2.993 12.008 0.438 14.938 C-2.905 17.271 -5.904 17.926 -10 18 C-12.875 17.188 -12.875 17.188 -15 16 C-16.628 12.743 -16.836 9.492 -16 6 C-11.743 1.321 -6.26 -0.652 0 0 Z " fill="#835AEB" transform="translate(632,625)"/></g><g><path d="M0 0 C8.768 8.768 8.886 21.967 10.047 33.602 C10 36 10 36 8 38 C7.759 36.676 7.759 36.676 7.513 35.325 C6.906 32.034 6.285 28.745 5.656 25.457 C5.387 24.037 5.124 22.616 4.865 21.195 C4.492 19.144 4.099 17.097 3.703 15.051 C3.473 13.82 3.242 12.589 3.005 11.322 C1.653 6.852 -0.6 4.23 -4.062 1.188 C-12.624 -2.273 -23.498 0.588 -32.312 1.938 C-34.166 2.211 -34.166 2.211 -36.057 2.49 C-41.38 3.28 -46.694 4.105 -52 5 C-52.33 4.01 -52.66 3.02 -53 2 C-9.884 -7.017 -9.884 -7.017 0 0 Z " fill="#161222" transform="translate(397,452)"/></g><g><path d="M0 0 C4.874 2.589 9.333 5.865 13 10 C13.812 13.125 13.812 13.125 13 16 C10.875 18.938 10.875 18.938 8 21 C3.99 21.171 1.727 19.998 -1.312 17.562 C-4.204 14.805 -4.873 14.115 -5.312 10.25 C-4.901 5.967 -3.042 3.042 0 0 Z " fill="#835AEB" transform="translate(419,588)"/></g><g><path d="M0 0 C0.276 0.563 0.552 1.127 0.836 1.707 C4.55 9.024 8.79 15.24 14.461 21.188 C16 23 16 23 16 25 C16.57 25.254 17.14 25.508 17.727 25.77 C20.27 27.146 22.192 28.792 24.375 30.688 C32.247 37.069 41.635 42.793 52 43 C53.32 39.37 54.64 35.74 56 32 C60.008 35.674 62.56 39.121 65 44 C65 44.99 65 45.98 65 47 C44.709 48.316 29.602 38.645 14.711 26.066 C8.249 20.081 1.801 11.404 -1 3 C-0.67 2.01 -0.34 1.02 0 0 Z " fill="#2F232F" transform="translate(336,718)"/></g><g><path d="M0 0 C2.232 1.572 2.93 2.601 3.73 5.219 C3.668 8.219 3.668 8.219 2.73 11.219 C0.493 13.342 -1.519 14.844 -4.27 16.219 C-2.95 16.879 -1.63 17.539 -0.27 18.219 C-3.24 18.219 -6.21 18.219 -9.27 18.219 C-8.61 17.889 -7.95 17.559 -7.27 17.219 C-7.27 16.559 -7.27 15.899 -7.27 15.219 C-8.198 15.136 -9.126 15.054 -10.082 14.969 C-13.27 14.219 -13.27 14.219 -15.207 12.469 C-16.571 9.581 -16.291 8.205 -15.27 5.219 C-12.926 2.875 -10.983 2.145 -7.895 0.969 C-6.938 0.592 -5.982 0.216 -4.996 -0.172 C-2.27 -0.781 -2.27 -0.781 0 0 Z " fill="#835AEB" transform="translate(640.26953125,651.78125)"/></g><g><path d="M0 0 C0.99 0.33 1.98 0.66 3 1 C1.924 1.496 0.847 1.993 -0.262 2.504 C-15.065 8.396 -15.065 8.396 -28 17 C-28.501 19.873 -28.501 19.873 -28 23 C-24.216 27.394 -19.472 28.094 -14 29 C-13.807 29.736 -13.613 30.472 -13.414 31.23 C-13.154 32.206 -12.893 33.182 -12.625 34.188 C-12.37 35.15 -12.115 36.113 -11.852 37.105 C-11.055 39.998 -11.055 39.998 -9.898 42.676 C-9 45 -9 45 -9 48 C-8.094 47.555 -7.188 47.111 -6.254 46.652 C0.817 43.32 6.116 41.097 14 43 C14 43.33 14 43.66 14 44 C13.441 44.003 12.881 44.005 12.305 44.008 C-0.957 44.647 -12.519 52.208 -23.773 58.633 C-27.8 60.902 -31.778 63.111 -36 65 C-36.99 64.67 -37.98 64.34 -39 64 C-38.461 63.718 -37.922 63.436 -37.367 63.146 C-34.89 61.848 -32.414 60.549 -29.938 59.25 C-29.09 58.807 -28.242 58.363 -27.369 57.906 C-23.537 55.894 -19.735 53.866 -16.004 51.672 C-13 50 -13 50 -11 50 C-11.349 49.215 -11.699 48.43 -12.059 47.621 C-14.472 42.05 -16.585 37.083 -17 31 C-18.217 30.753 -19.434 30.505 -20.688 30.25 C-24.591 29.281 -27.075 27.836 -30 25 C-31.662 21.676 -31.612 19.673 -31 16 C-25.512 11.018 -18.294 8.087 -11.562 5.188 C-9.793 4.41 -8.023 3.633 -6.254 2.855 C-5.484 2.522 -4.714 2.188 -3.92 1.844 C-2.598 1.263 -1.292 0.646 0 0 Z " fill="#281F49" transform="translate(666,527)"/></g><g><path d="M0 0 C1.04 0.178 2.081 0.356 3.152 0.539 C6.157 1.402 7.882 2.142 10.062 4.375 C10.59 7.136 10.248 9.539 10.062 12.375 C5.474 14.669 0.182 15.696 -4.938 15.375 C-7.442 13.505 -7.927 12.407 -8.938 9.375 C-9.388 3.067 -9.388 3.067 -7.793 0.617 C-5.028 -1.234 -3.213 -0.596 0 0 Z " fill="#835AEB" transform="translate(407.9375,528.625)"/></g><g><path d="M0 0 C4.423 0.583 7.516 2.268 11.312 4.562 C12.381 5.203 13.45 5.844 14.551 6.504 C15.359 6.998 16.167 7.491 17 8 C17.33 7.01 17.66 6.02 18 5 C18.99 5 19.98 5 21 5 C21.199 5.849 21.199 5.849 21.402 6.715 C21.579 7.448 21.756 8.182 21.938 8.938 C22.112 9.668 22.286 10.399 22.465 11.152 C22.839 13 22.839 13 24 14 C24.66 13.34 25.32 12.68 26 12 C26 13.32 26 14.64 26 16 C26.718 16.247 27.436 16.495 28.176 16.75 C31.302 18.134 33.552 19.831 36.188 22 C37.047 22.701 37.907 23.403 38.793 24.125 C41 26 41 26 43 28 C42.802 33.259 41.838 36.364 38 40 C32.421 43.236 27.383 43.8 21 43 C16.745 41.631 12.739 39.816 8.688 37.938 C6.593 36.976 4.493 36.027 2.387 35.09 C1.471 34.666 0.555 34.241 -0.388 33.804 C-4.831 32.436 -8.552 34.1 -12.812 35.562 C-13.603 35.832 -14.393 36.101 -15.207 36.379 C-15.799 36.584 -16.39 36.789 -17 37 C-13.839 33.71 -10.786 31.199 -6.031 30.859 C0.851 31.308 6.764 34.267 13 37 C20.534 40.108 27.629 41.561 35.5 38.75 C38.117 36.918 39.187 36.071 40 33 C39.456 27.731 37.293 26.046 33.359 22.816 C25.282 16.598 16.711 11.28 8 6 C5.308 4.365 2.645 2.711 0 1 C0 0.67 0 0.34 0 0 Z " fill="#2F232F" transform="translate(396,610)"/></g><g><path d="M0 0 C2 2 2 2 2.438 4.812 C1.833 9.218 0.532 10.316 -3 13 C-6.269 14.532 -9.591 15.815 -13 17 C-15.771 14.749 -16.894 13.563 -17.562 10 C-17 7 -17 7 -14.938 4.812 C-10.242 1.915 -5.669 -0.81 0 0 Z " fill="#835AEB" transform="translate(654,537)"/></g><g><path d="M0 0 C0.33 0 0.66 0 1 0 C1.33 24.75 1.66 49.5 2 75 C4.64 72.36 7.28 69.72 10 67 C17.984 61.677 32.471 65.362 41.625 66.375 C43.454 66.564 43.454 66.564 45.32 66.758 C52.934 67.571 60.464 68.648 68 70 C68.495 68.515 68.495 68.515 69 67 C69 68.32 69 69.64 69 71 C60.411 72.529 52.35 71.254 43.812 70.062 C26.589 66.619 26.589 66.619 10.376 69.561 C8.377 71.258 6.697 73.004 5 75 C3.418 76.73 3.418 76.73 2 78 C1.34 78 0.68 78 0 78 C0 52.26 0 26.52 0 0 Z " fill="#473268" transform="translate(343,457)"/></g><g><path d="M0 0 C0.66 0.33 1.32 0.66 2 1 C1.277 1.654 1.277 1.654 0.539 2.32 C-3.324 5.963 -5.824 8.643 -7 14 C-6.299 13.7 -5.598 13.399 -4.875 13.09 C-3.452 12.519 -3.452 12.519 -2 11.938 C-1.072 11.555 -0.144 11.172 0.812 10.777 C8.22 8.971 13.776 11.445 20.125 15 C20.851 15.395 21.578 15.79 22.326 16.197 C29.437 20.122 36.256 24.479 43 29 C42.34 29.66 41.68 30.32 41 31 C40.103 30.371 39.206 29.742 38.281 29.094 C31.561 24.454 24.77 20.11 17.5 16.375 C16.855 16.033 16.21 15.691 15.545 15.338 C11.096 13.125 7.919 12.264 3 13 C-1.298 14.661 -5.386 16.681 -9.5 18.75 C-10.602 19.289 -11.704 19.828 -12.84 20.383 C-17.365 22.61 -21.833 24.853 -26.156 27.453 C-27.095 27.964 -28.033 28.474 -29 29 C-29.66 28.67 -30.32 28.34 -31 28 C-30.166 27.539 -29.332 27.077 -28.473 26.602 C-20.523 21.994 -14.842 17.197 -9 10 C-7.693 8.495 -6.381 6.995 -5.062 5.5 C-4.245 4.556 -4.245 4.556 -3.41 3.594 C-2.316 2.357 -1.168 1.168 0 0 Z " fill="#2F232F" transform="translate(371,553)"/></g><g><path d="M0 0 C4.925 2.561 9.898 5.229 13 10 C13 13.25 13 13.25 12 16 C11.34 16.66 10.68 17.32 10 18 C5.825 17.79 2.028 16.602 -1.562 14.5 C-3.795 10.617 -3.845 6.37 -3 2 C-2.01 1.34 -1.02 0.68 0 0 Z " fill="#835AEB" transform="translate(424,629)"/></g><g><path d="M0 0 C0 0.66 0 1.32 0 2 C-5.787 0.496 -11.403 -1.14 -17 -3.25 C-25.283 -6.047 -32.593 -4.895 -40.637 -1.816 C-43.319 -0.89 -46.044 -0.246 -48.799 0.427 C-52.63 1.425 -56.372 2.681 -60.125 3.938 C-60.897 4.19 -61.669 4.442 -62.465 4.701 C-66.829 6.155 -71.005 7.68 -75 10 C-76.326 12.379 -76.326 12.379 -76 15 C-74.111 17.519 -72.745 18.752 -69.75 19.75 C-69.173 19.832 -68.595 19.915 -68 20 C-68 20.66 -68 21.32 -68 22 C-71.367 21.694 -73.562 21.3 -76.375 19.375 C-78.652 16.046 -78.564 13.949 -78 10 C-74.595 5.043 -68.905 4.08 -63.438 2.438 C-61.538 1.861 -59.641 1.277 -57.746 0.684 C-56.907 0.432 -56.069 0.179 -55.205 -0.08 C-52.847 -1.064 -51.762 -2.199 -50 -4 C-46.75 -4.695 -46.75 -4.695 -43 -5.125 C-26.337 -7.104 -15.995 -5.916 0 0 Z " fill="#2F232F" transform="translate(701,647)"/></g><g><path d="M0 0 C2.814 0.658 5.474 1.511 8.188 2.5 C12.185 3.863 15.95 4.478 20.152 4.789 C22 5 22 5 24 6 C26.037 6.229 28.08 6.41 30.125 6.562 C31.769 6.688 31.769 6.688 33.445 6.816 C34.71 6.907 34.71 6.907 36 7 C36 7.33 36 7.66 36 8 C24.404 8.375 12.507 8.74 2 3 C5.07 13.372 9.579 20.485 19 26 C18.01 26.33 17.02 26.66 16 27 C8.989 23.427 3.8 17.009 0.625 9.938 C-0.094 6.557 -0.138 3.446 0 0 Z " fill="#2F232F" transform="translate(507,386)"/></g><g><path d="M0 0 C4.876 1.488 9.221 3.69 13.688 6.125 C11.174 7.039 10.021 7.247 7.469 6.312 C5.948 5.521 4.427 4.729 2.906 3.938 C0.354 3.003 -0.799 3.211 -3.312 4.125 C-1.002 4.455 1.308 4.785 3.688 5.125 C3.688 5.455 3.688 5.785 3.688 6.125 C3.098 6.286 2.509 6.447 1.903 6.612 C-0.817 7.359 -3.533 8.117 -6.25 8.875 C-7.176 9.128 -8.102 9.38 -9.057 9.641 C-14.457 11.156 -19.427 12.933 -24.44 15.462 C-26.312 16.125 -26.312 16.125 -29.312 15.125 C-28.774 14.848 -28.235 14.572 -27.679 14.286 C-25.2 13.009 -22.725 11.723 -20.25 10.438 C-19.402 10.002 -18.555 9.567 -17.682 9.119 C-13.722 7.055 -9.979 4.977 -6.398 2.301 C-3.312 0.125 -3.312 0.125 0 0 Z " fill="#2F232F" transform="translate(384.3125,600.875)"/></g><g><path d="M0 0 C4.008 3.674 6.56 7.121 9 12 C9 12.99 9 13.98 9 15 C7.063 15.054 5.125 15.093 3.188 15.125 C2.109 15.148 1.03 15.171 -0.082 15.195 C-3 15 -3 15 -6 13 C-5.01 13 -4.02 13 -3 13 C-2.876 11.783 -2.752 10.566 -2.625 9.312 C-2.211 5.935 -1.454 3.102 0 0 Z " fill="#0C0A0B" transform="translate(392,750)"/></g><g><path d="M0 0 C5.935 2.556 12.058 4.363 18.25 6.188 C18.25 6.847 18.25 7.508 18.25 8.188 C12.87 6.955 7.534 5.677 2.324 3.84 C1.668 3.609 1.011 3.378 0.334 3.139 C-1.55 2.464 -3.427 1.772 -5.305 1.078 C-9.023 0.117 -11.063 0.257 -14.75 1.188 C-15.656 1.413 -16.562 1.639 -17.496 1.871 C-18.384 2.12 -19.272 2.369 -20.188 2.625 C-21.603 3.019 -21.603 3.019 -23.047 3.422 C-24.385 3.801 -24.385 3.801 -25.75 4.188 C-26.498 4.399 -27.245 4.61 -28.016 4.828 C-29.595 5.277 -31.173 5.732 -32.75 6.188 C-33.41 5.528 -34.07 4.867 -34.75 4.188 C-31.448 2.969 -28.132 1.794 -24.812 0.625 C-23.886 0.283 -22.96 -0.059 -22.006 -0.412 C-14.151 -3.141 -7.682 -3.519 0 0 Z " fill="#44282E" transform="translate(687.75,606.8125)"/></g><g><path d="M0 0 C0.66 0.66 1.32 1.32 2 2 C1.06 2.507 1.06 2.507 0.102 3.023 C-0.716 3.469 -1.533 3.915 -2.375 4.375 C-3.593 5.036 -3.593 5.036 -4.836 5.711 C-7.108 6.944 -7.108 6.944 -9 9 C-9.661 13.1 -9.661 13.1 -9 17 C-6.328 20.109 -4.676 21.747 -0.586 22.364 C2.187 22.42 4.917 22.338 7.688 22.188 C9.566 22.11 11.445 22.04 13.324 21.98 C14.563 21.917 14.563 21.917 15.827 21.852 C18 22 18 22 21 24 C14.876 27.062 4.654 25.791 -2 25 C-6.393 23.338 -9.86 21.281 -12 17 C-12.696 9.928 -12.696 9.928 -9.938 6.25 C-6.73 3.793 -3.568 1.889 0 0 Z " fill="#422C3F" transform="translate(626,591)"/></g><g><path d="M0 0 C0.66 0 1.32 0 2 0 C2.025 0.645 2.05 1.291 2.076 1.956 C2.192 4.888 2.315 7.819 2.438 10.75 C2.477 11.766 2.516 12.782 2.557 13.828 C2.599 14.808 2.64 15.788 2.684 16.797 C2.72 17.698 2.757 18.598 2.795 19.526 C2.907 21.978 2.907 21.978 3.672 24.142 C3.78 24.755 3.889 25.368 4 26 C2.338 28.003 0.671 30.003 -1 32 C-1.835 34.632 -1.835 34.632 -1 37 C1.409 38.862 1.409 38.862 4 40 C2.25 40.688 2.25 40.688 0 41 C-2.25 40 -2.25 40 -4 38 C-4.5 34.625 -4.5 34.625 -4 31 C-3.338 30.228 -2.675 29.455 -1.993 28.659 C0.432 25.423 0.469 23.82 0.391 19.824 C0.378 18.667 0.365 17.51 0.352 16.318 C0.301 14.521 0.301 14.521 0.25 12.688 C0.232 11.47 0.214 10.252 0.195 8.998 C0.148 5.998 0.083 2.999 0 0 Z " fill="#2F232F" transform="translate(534,329)"/></g><g><path d="M0 0 C0.33 0 0.66 0 1 0 C1 27.06 1 54.12 1 82 C0.67 82 0.34 82 0 82 C-0.33 57.25 -0.66 32.5 -1 7 C-1.99 7.495 -1.99 7.495 -3 8 C-1.125 1.125 -1.125 1.125 0 0 Z " fill="#ABDCF1" transform="translate(389,793)"/></g><g><path d="M0 0 C1.665 0.341 3.332 0.676 5 1 C5 1.33 5 1.66 5 2 C4.183 2.116 3.366 2.232 2.525 2.351 C-0.528 2.785 -3.581 3.219 -6.633 3.654 C-8.595 3.933 -10.557 4.212 -12.52 4.49 C-13.763 4.667 -15.007 4.845 -16.289 5.027 C-17.431 5.19 -18.572 5.352 -19.749 5.519 C-22.839 5.976 -25.92 6.476 -29 7 C-29.33 6.01 -29.66 5.02 -30 4 C-26.792 3.353 -23.584 2.707 -20.375 2.062 C-19.471 1.88 -18.568 1.698 -17.637 1.51 C-3.88 -1.252 -3.88 -1.252 0 0 Z " fill="#322B40" transform="translate(374,450)"/></g><g><path d="M0 0 C1.922 3.188 2.117 4.985 1.5 8.625 C0.882 13.371 1.424 17.165 2.625 21.773 C3.031 24.187 2.758 25.696 2 28 C1.67 27.01 1.34 26.02 1 25 C0.34 25.33 -0.32 25.66 -1 26 C-1.99 21.71 -2.98 17.42 -4 13 C-5.32 13.33 -6.64 13.66 -8 14 C-7.01 12.68 -6.02 11.36 -5 10 C-7.64 9.67 -10.28 9.34 -13 9 C-13 8.67 -13 8.34 -13 8 C-9.04 7.34 -5.08 6.68 -1 6 C-0.67 4.02 -0.34 2.04 0 0 Z " fill="#2F232F" transform="translate(418,535)"/></g><g><path d="M0 0 C0 0.33 0 0.66 0 1 C-0.559 1.003 -1.119 1.005 -1.695 1.008 C-14.957 1.647 -26.519 9.208 -37.773 15.633 C-41.8 17.902 -45.778 20.111 -50 22 C-50.99 21.67 -51.98 21.34 -53 21 C-52.461 20.718 -51.922 20.436 -51.367 20.146 C-48.89 18.848 -46.414 17.549 -43.938 16.25 C-43.09 15.807 -42.242 15.363 -41.369 14.906 C-37.537 12.894 -33.735 10.866 -30.004 8.672 C-27 7 -27 7 -25 7 C-25 5.68 -25 4.36 -25 3 C-24.34 3 -23.68 3 -23 3 C-23 3.66 -23 4.32 -23 5 C-22.094 4.555 -21.188 4.111 -20.254 3.652 C-13.183 0.32 -7.884 -1.903 0 0 Z " fill="#2F232F" transform="translate(680,570)"/></g><g><path d="M0 0 C6.778 2.949 13.684 4.816 20.918 6.27 C20.918 6.6 20.918 6.93 20.918 7.27 C12.377 8.136 6.276 5.764 -1.395 2.207 C-3.489 1.246 -5.589 0.296 -7.695 -0.641 C-8.611 -1.065 -9.527 -1.489 -10.47 -1.926 C-14.913 -3.294 -18.634 -1.631 -22.895 -0.168 C-24.08 0.236 -24.08 0.236 -25.289 0.648 C-26.177 0.956 -26.177 0.956 -27.082 1.27 C-18.454 -7.712 -10.203 -4.487 0 0 Z " fill="#44282E" transform="translate(406.08203125,645.73046875)"/></g><g><path d="M0 0 C3 0 3 0 6 1 C5.288 1.65 5.288 1.65 4.562 2.312 C2.25 4.81 2.003 6.971 1.625 10.312 C2.118 15.158 3.657 16.574 7 20 C5.35 20 3.7 20 2 20 C2 21.98 2 23.96 2 26 C1.67 26 1.34 26 1 26 C0.918 24.763 0.835 23.525 0.75 22.25 C0.278 18.19 -1.011 16.79 -4 14 C-3.814 10.926 -2.751 9.626 -1 7 C-0.606 4.676 -0.265 2.342 0 0 Z " fill="#DCD1EE" transform="translate(432,579)"/></g><g><path d="M0 0 C0.681 0.701 1.361 1.403 2.062 2.125 C6.956 6.991 11.607 11.193 18 14 C14.671 15.11 14.126 14.941 10.988 13.785 C10.231 13.511 9.474 13.237 8.693 12.955 C7.515 12.513 7.515 12.513 6.312 12.062 C5.515 11.772 4.718 11.481 3.896 11.182 C1.928 10.463 -0.036 9.732 -2 9 C-1.34 8.67 -0.68 8.34 0 8 C0 5.36 0 2.72 0 0 Z " fill="#4D3254" transform="translate(699,567)"/></g><g><path d="M0 0 C-1.076 0.496 -2.153 0.993 -3.262 1.504 C-7.858 3.635 -12.435 5.804 -17 8 C-17.676 8.325 -18.352 8.65 -19.049 8.985 C-20.855 9.866 -22.647 10.776 -24.438 11.688 C-25.467 12.207 -26.497 12.726 -27.559 13.262 C-30.374 15.266 -31.067 16.722 -32 20 C-32.66 19.01 -33.32 18.02 -34 17 C-32.964 13.645 -31.844 12.907 -28.762 11.07 C-27.41 10.409 -26.051 9.761 -24.688 9.125 C-23.976 8.783 -23.265 8.442 -22.532 8.09 C-21.071 7.391 -19.607 6.697 -18.141 6.009 C-16.135 5.064 -14.145 4.093 -12.156 3.113 C-3.38 -1.127 -3.38 -1.127 0 0 Z " fill="#281F49" transform="translate(669,528)"/></g><g><path d="M0 0 C4.423 0.583 7.516 2.268 11.312 4.562 C12.381 5.203 13.45 5.844 14.551 6.504 C15.359 6.998 16.167 7.491 17 8 C17.33 7.01 17.66 6.02 18 5 C18.99 5 19.98 5 21 5 C21 7.31 21 9.62 21 12 C16.445 11.028 12.829 8.844 8.812 6.562 C8.076 6.155 7.339 5.747 6.58 5.326 C5.879 4.931 5.179 4.536 4.457 4.129 C3.817 3.769 3.178 3.408 2.519 3.037 C1 2 1 2 0 0 Z " fill="#1C163D" transform="translate(396,610)"/></g><g><path d="M0 0 C2.93 2.93 3.941 5.68 4.125 9.812 C4.084 10.534 4.043 11.256 4 12 C4.639 12.289 5.279 12.577 5.938 12.875 C8 14 8 14 9 16 C9.04 18 9.043 20 9 22 C8.752 21.423 8.505 20.845 8.25 20.25 C5.904 16.028 3.88 14.293 -0.75 12.75 C-2.359 12.379 -2.359 12.379 -4 12 C-4 11.67 -4 11.34 -4 11 C-2.35 11 -0.7 11 1 11 C0.835 10.484 0.67 9.969 0.5 9.438 C-0.15 6.266 -0.062 3.228 0 0 Z " fill="#161222" transform="translate(411,517)"/></g><g><path d="M0 0 C0.66 0 1.32 0 2 0 C2 0.66 2 1.32 2 2 C10.91 2 19.82 2 29 2 C25.415 5.585 19.87 4.764 15 5 C13.356 5.081 13.356 5.081 11.68 5.164 C2.798 5.404 2.798 5.404 -1 2 C-0.67 1.34 -0.34 0.68 0 0 Z " fill="#573947" transform="translate(620,642)"/></g><g><path d="M0 0 C-0.33 1.32 -0.66 2.64 -1 4 C-1 3.01 -1 2.02 -1 1 C-1.739 1.277 -2.477 1.554 -3.238 1.84 C-14.528 5.871 -24.145 6.345 -36 5 C-36 4.67 -36 4.34 -36 4 C-34.912 3.963 -33.824 3.925 -32.703 3.887 C-22.459 3.457 -9.27 -2.196 0 0 Z " fill="#422C3F" transform="translate(567,388)"/></g><g><path d="M0 0 C4.297 1.268 8.198 3.488 12.117 5.625 C9.629 6.529 8.504 6.78 6.004 5.777 C5.278 5.376 4.552 4.976 3.805 4.562 C0.173 2.812 -0.637 2.582 -4.82 3.312 C-6.526 4.043 -8.223 4.795 -9.883 5.625 C-7.758 0.722 -5.43 -0.932 0 0 Z " fill="#1C163D" transform="translate(385.8828125,601.375)"/></g><g><path d="M0 0 C0.99 0 1.98 0 3 0 C3.408 7.75 1.932 12.911 -3.188 18.938 C-4.117 19.966 -5.051 20.99 -6 22 C-6.66 21.67 -7.32 21.34 -8 21 C-7.529 20.383 -7.059 19.765 -6.574 19.129 C-2.52 13.614 0.314 8.648 2 2 C1.01 1.67 0.02 1.34 -1 1 C-0.67 0.67 -0.34 0.34 0 0 Z " fill="#261E24" transform="translate(565,386)"/></g><g><path d="M0 0 C0.66 0.33 1.32 0.66 2 1 C1.277 1.654 1.277 1.654 0.539 2.32 C-3.324 5.963 -5.824 8.643 -7 14 C-6.34 14.33 -5.68 14.66 -5 15 C-10.75 18 -10.75 18 -13 18 C-11.848 15.532 -10.952 13.952 -9 12 C-8.773 11.278 -8.546 10.556 -8.312 9.812 C-6.401 5.716 -3.283 3.046 0 0 Z " fill="#583A8D" transform="translate(371,553)"/></g><g><path d="M0 0 C2.36 2.36 2.491 3.779 3 7 C2.34 7 1.68 7 1 7 C1 16.57 1 26.14 1 36 C0.67 36 0.34 36 0 36 C0 24.12 0 12.24 0 0 Z " fill="#CFCDD0" transform="translate(698,800)"/></g><g><path d="M0 0 C-1 3 -1 3 -2.758 3.984 C-10.73 6.563 -17.777 5.91 -26 5 C-26 4.67 -26 4.34 -26 4 C-25.105 3.963 -24.211 3.925 -23.289 3.887 C-16.48 3.517 -10.348 2.856 -3.891 0.621 C-2 0 -2 0 0 0 Z " fill="#573947" transform="translate(728,730)"/></g><g><path d="M0 0 C2 1 2 1 2.852 2.996 C3.107 3.802 3.362 4.607 3.625 5.438 C3.885 6.241 4.146 7.044 4.414 7.871 C5 10 5 10 5 12 C3.35 12.66 1.7 13.32 0 14 C0 9.38 0 4.76 0 0 Z " fill="#8366D3" transform="translate(650,565)"/></g><g><path d="M0 0 C1.212 1.817 2.405 3.648 3.562 5.5 C6.539 8.553 9.001 9.162 13.074 10.129 C13.71 10.416 14.345 10.704 15 11 C15.77 13.09 15.77 13.09 16 15 C15.34 14.34 14.68 13.68 14 13 C12.113 12.567 12.113 12.567 10.188 12.125 C6.265 11.191 3.752 10.086 1 7 C0.188 3.25 0.188 3.25 0 0 Z " fill="#2F232F" transform="translate(635,545)"/></g><g><path d="M0 0 C0.33 0 0.66 0 1 0 C1 8.58 1 17.16 1 26 C0.67 26 0.34 26 0 26 C-0.33 19.73 -0.66 13.46 -1 7 C-1.99 7.495 -1.99 7.495 -3 8 C-1.125 1.125 -1.125 1.125 0 0 Z " fill="#CDE7FA" transform="translate(389,793)"/></g><g><path d="M0 0 C0.99 0 1.98 0 3 0 C6.509 4.184 6.669 8.764 7 14 C3.038 9.765 1.568 5.453 0 0 Z " fill="#9E77F7" transform="translate(250,854)"/></g><g><path d="M0 0 C0.66 0 1.32 0 2 0 C3.516 1.609 3.516 1.609 5.25 3.75 C8.239 7.284 11.02 9.67 15 12 C14.01 12.33 13.02 12.66 12 13 C7.202 10.379 3.025 6.538 0 2 C0 1.34 0 0.68 0 0 Z " fill="#2F232F" transform="translate(511,400)"/></g><g><path d="M0 0 C0.99 0.33 1.98 0.66 3 1 C1.301 2.469 -0.41 3.925 -2.125 5.375 C-3.076 6.187 -4.028 6.999 -5.008 7.836 C-7.989 9.992 -10.47 11.047 -14 12 C-14 11.34 -14 10.68 -14 10 C-11.953 8.633 -11.953 8.633 -9.25 7.125 C-5.618 5.097 -2.832 3.057 0 0 Z " fill="#2F232F" transform="translate(742,719)"/></g><g><path d="M0 0 C2.64 0 5.28 0 8 0 C4.899 2.067 1.956 3.365 -1.5 4.75 C-2.645 5.219 -3.789 5.688 -4.969 6.172 C-5.969 6.445 -6.969 6.718 -8 7 C-8.99 6.34 -9.98 5.68 -11 5 C-10.29 4.807 -9.579 4.613 -8.848 4.414 C-7.929 4.154 -7.009 3.893 -6.062 3.625 C-4.688 3.242 -4.688 3.242 -3.285 2.852 C-0.833 2.233 -0.833 2.233 0 0 Z " fill="#261E24" transform="translate(649,644)"/></g><g><path d="M0 0 C0.66 0.33 1.32 0.66 2 1 C-0.31 3.64 -2.62 6.28 -5 9 C-9 7 -9 7 -11 4 C-10.113 4.268 -9.226 4.536 -8.312 4.812 C-4.795 5.393 -4.795 5.393 -2.125 2.562 C-1.424 1.717 -0.723 0.871 0 0 Z " fill="#DFDAFC" transform="translate(446,584)"/></g><g><path d="M0 0 C0.33 0.66 0.66 1.32 1 2 C-5.373 2.745 -11.583 3.103 -18 3 C-12.39 -0.74 -6.527 -0.114 0 0 Z " fill="#020102" transform="translate(389,448)"/></g><g><path d="M0 0 C0.99 0 1.98 0 3 0 C3.124 0.577 3.247 1.155 3.375 1.75 C3.904 4.007 3.904 4.007 5.062 5.875 C6.29 8.657 6.137 10.995 6 14 C5.34 14 4.68 14 4 14 C3.33 12.043 2.664 10.084 2 8.125 C1.629 7.034 1.258 5.944 0.875 4.82 C0 2 0 2 0 0 Z " fill="#9E77F7" transform="translate(714,852)"/></g><g><path d="M0 0 C3.438 0.812 3.438 0.812 7 2 C7.33 2.99 7.66 3.98 8 5 C4.689 6.001 1.699 6.104 -1.75 6.062 C-2.735 6.053 -3.72 6.044 -4.734 6.035 C-5.482 6.024 -6.23 6.012 -7 6 C-7 5.67 -7 5.34 -7 5 C-4.03 5 -1.06 5 2 5 C2 4.01 2 3.02 2 2 C1.34 2 0.68 2 0 2 C0 1.34 0 0.68 0 0 Z " fill="#D27C81" transform="translate(419,607)"/></g><g><path d="M0 0 C3.279 0.565 4.934 1.37 7 4 C7.293 6.262 7.293 6.262 7.188 8.688 C7.16 9.496 7.133 10.304 7.105 11.137 C7.071 11.752 7.036 12.366 7 13 C6.01 12.34 5.02 11.68 4 11 C3.655 8.668 3.322 6.335 3 4 C1.573 1.62 1.573 1.62 0 0 Z " fill="#1C163D" transform="translate(425,573)"/></g><g><path d="M0 0 C1.32 0.33 2.64 0.66 4 1 C3.125 5.75 3.125 5.75 2 8 C1.01 7.67 0.02 7.34 -1 7 C-1.812 5.125 -1.812 5.125 -2 3 C-1.34 2.01 -0.68 1.02 0 0 Z " fill="#DAD7D6" transform="translate(582,322)"/></g><g><path d="M0 0 C1.32 0 2.64 0 4 0 C4 3.3 4 6.6 4 10 C2 8.375 2 8.375 0 6 C-0.25 2.75 -0.25 2.75 0 0 Z " fill="#DCD1EE" transform="translate(417,615)"/></g><g><path d="M0 0 C4.721 1.543 9.417 3.078 14 5 C13.67 6.32 13.34 7.64 13 9 C10.831 7.692 8.664 6.379 6.5 5.062 C5.88 4.689 5.26 4.316 4.621 3.932 C3.064 2.982 1.53 1.994 0 1 C0 0.67 0 0.34 0 0 Z " fill="#583A8D" transform="translate(400,610)"/></g><g><path d="M0 0 C-0.33 0.33 -0.66 0.66 -1 1 C-1.234 3.016 -1.413 5.038 -1.562 7.062 C-1.646 8.167 -1.73 9.272 -1.816 10.41 C-1.877 11.265 -1.938 12.119 -2 13 C-4.13 9.21 -4.167 6.343 -4 2 C-5.32 1.67 -6.64 1.34 -8 1 C-2.25 -1.125 -2.25 -1.125 0 0 Z " fill="#5B4A73" transform="translate(425,613)"/></g><g><path d="M0 0 C2.78 0 5.425 0.213 8.188 0.5 C9.089 0.593 9.99 0.686 10.918 0.781 C11.605 0.853 12.292 0.926 13 1 C13 1.33 13 1.66 13 2 C11.421 2.533 9.836 3.051 8.25 3.562 C7.368 3.853 6.487 4.143 5.578 4.441 C2.922 5.017 1.53 4.892 -1 4 C-0.67 2.68 -0.34 1.36 0 0 Z " fill="#2D1E5B" transform="translate(375,605)"/></g><g><path d="M0 0 C1.32 0.66 2.64 1.32 4 2 C3.67 3.65 3.34 5.3 3 7 C1.68 6.67 0.36 6.34 -1 6 C-1.625 4.125 -1.625 4.125 -2 2 C-1.34 1.34 -0.68 0.68 0 0 Z " fill="#DAD7D6" transform="translate(496,322)"/></g><g><path d="M0 0 C0.901 0.009 1.802 0.018 2.73 0.027 C3.418 0.039 4.105 0.051 4.812 0.062 C3.812 2.062 3.812 2.062 0.5 3.25 C-4.428 4.336 -4.428 4.336 -7.188 3.062 C-7.517 2.402 -7.848 1.743 -8.188 1.062 C-5.173 0.058 -3.146 -0.041 0 0 Z " fill="#161222" transform="translate(352.1875,452.9375)"/></g><g><path d="M0 0 C0.66 0.33 1.32 0.66 2 1 C2 1.66 2 2.32 2 3 C3.207 2.722 3.207 2.722 4.438 2.438 C8.783 1.904 12.69 2.377 17 3 C17 3.33 17 3.66 17 4 C14.083 4.054 11.167 4.094 8.25 4.125 C7.425 4.142 6.6 4.159 5.75 4.176 C4.951 4.182 4.152 4.189 3.328 4.195 C2.595 4.206 1.862 4.216 1.106 4.227 C-1.299 3.968 -2.913 3.192 -5 2 C-2.625 0.938 -2.625 0.938 0 0 Z " fill="#A987FE" transform="translate(299,894)"/></g><g><path d="M0 0 C1.861 0.44 3.72 0.893 5.559 1.418 C9.969 2.469 14.486 2.685 19 3 C19 3.33 19 3.66 19 4 C16.437 4.054 13.876 4.094 11.312 4.125 C10.591 4.142 9.87 4.159 9.127 4.176 C4.951 4.214 1.751 3.879 -2 2 C-1.34 1.34 -0.68 0.68 0 0 Z " fill="#26102E" transform="translate(694,732)"/></g><g><path d="M0 0 C5.637 1.326 7.932 5.466 11 10 C8 10 8 10 5.957 8.066 C5.249 7.24 4.542 6.414 3.812 5.562 C3.097 4.739 2.382 3.915 1.645 3.066 C0 1 0 1 0 0 Z " fill="#9E77F7" transform="translate(260,873)"/></g><g><path d="M0 0 C3 0 3 0 6 1 C5.294 1.582 5.294 1.582 4.574 2.176 C2.59 4.475 2.315 6.213 1.812 9.188 C1.654 10.089 1.495 10.99 1.332 11.918 C1.222 12.605 1.113 13.292 1 14 C0.67 14 0.34 14 0 14 C-0.913 9.029 -0.913 4.971 0 0 Z " fill="#C4A2E8" transform="translate(432,579)"/></g><g><path d="M0 0 C0.99 0 1.98 0 3 0 C3 2.31 3 4.62 3 7 C-0.27 6.436 -1.826 5.5 -4 3 C-3.01 3 -2.02 3 -1 3 C-0.67 2.01 -0.34 1.02 0 0 Z " fill="#161222" transform="translate(414,615)"/></g><g><path d="M0 0 C1.887 0.031 1.887 0.031 3.812 0.062 C1.266 2.063 -1.154 3.888 -4.188 5.062 C-5.178 4.732 -6.168 4.403 -7.188 4.062 C-6.528 3.732 -5.867 3.403 -5.188 3.062 C-5.847 2.403 -6.508 1.742 -7.188 1.062 C-4.437 0.146 -2.828 -0.046 0 0 Z " fill="#231015" transform="translate(651.1875,611.9375)"/></g><g><path d="M0 0 C-0.66 1.32 -1.32 2.64 -2 4 C-4.812 4.188 -4.812 4.188 -8 4 C-9.699 2.488 -9.699 2.488 -11 1 C-9.544 0.637 -8.085 0.285 -6.625 -0.062 C-5.407 -0.358 -5.407 -0.358 -4.164 -0.66 C-2 -1 -2 -1 0 0 Z " fill="#E28E9F" transform="translate(631,610)"/></g><g><path d="M0 0 C0.66 0.66 1.32 1.32 2 2 C-0.809 3.405 -2.888 3.249 -6 3 C-8.375 1.5 -8.375 1.5 -10 0 C-6.233 -2.608 -4.055 -1.763 0 0 Z " fill="#64447E" transform="translate(389,605)"/></g><g><path d="M0 0 C5.802 -0.363 9.64 0.743 15 3 C15 3.66 15 4.32 15 5 C13.061 4.549 11.124 4.089 9.188 3.625 C8.109 3.37 7.03 3.115 5.918 2.852 C3 2 3 2 0 0 Z " fill="#543036" transform="translate(691,610)"/></g><g><path d="M0 0 C3.96 0 7.92 0 12 0 C12 0.66 12 1.32 12 2 C9.69 2.66 7.38 3.32 5 4 C5 3.34 5 2.68 5 2 C3.35 1.67 1.7 1.34 0 1 C0 0.67 0 0.34 0 0 Z " fill="#835AEB" transform="translate(667,521)"/></g><g><path d="M0 0 C0.33 0 0.66 0 1 0 C1.251 1.413 1.475 2.831 1.688 4.25 C1.815 5.039 1.943 5.828 2.074 6.641 C1.98 9.628 0.955 10.809 -1 13 C-1.222 11.398 -1.427 9.793 -1.625 8.188 C-1.741 7.294 -1.857 6.401 -1.977 5.48 C-2 3 -2 3 0 0 Z " fill="#4D3254" transform="translate(407,487)"/></g><g><path d="M0 0 C5.28 0.66 10.56 1.32 16 2 C16 2.33 16 2.66 16 3 C14.106 3.224 12.21 3.428 10.312 3.625 C8.729 3.799 8.729 3.799 7.113 3.977 C3.863 4.001 1.898 3.409 -1 2 C-0.67 1.34 -0.34 0.68 0 0 Z " fill="#5B4E58" transform="translate(526,412)"/></g><g><path d="M0 0 C0.66 0.66 1.32 1.32 2 2 C0.567 2.841 -0.872 3.673 -2.312 4.5 C-3.513 5.196 -3.513 5.196 -4.738 5.906 C-7 7 -7 7 -10 7 C-7.009 3.664 -4.068 1.849 0 0 Z " fill="#4D3254" transform="translate(626,591)"/></g><g><path d="M0 0 C0.33 0 0.66 0 1 0 C1.365 1.581 1.717 3.165 2.062 4.75 C2.26 5.632 2.457 6.513 2.66 7.422 C2.998 9.987 2.812 11.571 2 14 C1.67 13.01 1.34 12.02 1 11 C0.01 11.495 0.01 11.495 -1 12 C-0.67 8.04 -0.34 4.08 0 0 Z " fill="#422C3F" transform="translate(418,549)"/></g><g><path d="M0 0 C2.31 0.33 4.62 0.66 7 1 C6.67 1.99 6.34 2.98 6 4 C4.35 4.33 2.7 4.66 1 5 C0.67 3.35 0.34 1.7 0 0 Z " fill="#E28E9F" transform="translate(427,645)"/></g><g><path d="M0 0 C-3.505 1.963 -7.134 2.959 -11 4 C-11.66 3.34 -12.32 2.68 -13 2 C-11.399 1.468 -9.794 0.95 -8.188 0.438 C-7.294 0.147 -6.401 -0.143 -5.48 -0.441 C-3 -1 -3 -1 0 0 Z " fill="#543036" transform="translate(666,609)"/></g><g><path d="M0 0 C0.33 0 0.66 0 1 0 C1.25 1.747 1.474 3.498 1.688 5.25 C1.879 6.712 1.879 6.712 2.074 8.203 C1.987 11.483 1.192 12.633 -1 15 C-1.103 9.874 -1.036 5.05 0 0 Z " fill="#322B40" transform="translate(411,508)"/></g><g><path d="M0 0 C0.33 0.99 0.66 1.98 1 3 C-2.9 5.6 -6.474 5.151 -11 5 C-11 4.67 -11 4.34 -11 4 C-8.69 4 -6.38 4 -4 4 C-3.67 3.01 -3.34 2.02 -3 1 C-2.01 0.67 -1.02 0.34 0 0 Z " fill="#7F4FC8" transform="translate(630,606)"/></g><g><path d="M0 0 C0.866 0.557 0.866 0.557 1.75 1.125 C-0.61 3.485 -2.029 3.616 -5.25 4.125 C-5.58 3.135 -5.91 2.145 -6.25 1.125 C-2.804 -1.09 -2.804 -1.09 0 0 Z " fill="#7853D8" transform="translate(630.25,592.875)"/></g><g><path d="M0 0 C3.006 3.006 2.596 5.824 3 10 C2.34 10 1.68 10 1 10 C-0.607 6.785 -0.057 3.564 0 0 Z " fill="#020102" transform="translate(418,558)"/></g><g><path d="M0 0 C2.398 2.398 2.343 3.333 2.625 6.625 C2.7 7.442 2.775 8.26 2.852 9.102 C2.901 9.728 2.95 10.355 3 11 C1 10 1 10 0 7 C-0.04 4.667 -0.044 2.333 0 0 Z " fill="#020102" transform="translate(411,517)"/></g><g><path d="M0 0 C2.36 2.36 2.491 3.779 3 7 C2.34 7 1.68 7 1 7 C1 8.98 1 10.96 1 13 C0.67 13 0.34 13 0 13 C0 8.71 0 4.42 0 0 Z " fill="#E3E0DF" transform="translate(698,800)"/></g><g><path d="M0 0 C2 2.546 3.826 4.966 5 8 C4.67 8.99 4.34 9.98 4 11 C3.711 10.361 3.423 9.721 3.125 9.062 C2.172 6.848 2.172 6.848 0 6 C0 4.02 0 2.04 0 0 Z " fill="#EDAFC4" transform="translate(507,230)"/></g><g><path d="M0 0 C4 1 4 1 6 3 C4.35 3 2.7 3 1 3 C1 4.98 1 6.96 1 9 C0.67 9 0.34 9 0 9 C0 6.03 0 3.06 0 0 Z " fill="#CFCDD0" transform="translate(433,596)"/></g><g><path d="M0 0 C0.75 1.75 0.75 1.75 1 4 C-0.938 6.25 -0.938 6.25 -3 8 C-3 3.732 -2.624 3.061 0 0 Z " fill="#161222" transform="translate(430,583)"/></g><g><path d="M0 0 C0.66 0 1.32 0 2 0 C2.977 6.055 2.977 6.055 3 8 C2.34 8.66 1.68 9.32 1 10 C0 9 0 9 -0.098 6.934 C-0.086 6.11 -0.074 5.286 -0.062 4.438 C-0.053 3.611 -0.044 2.785 -0.035 1.934 C-0.024 1.296 -0.012 0.657 0 0 Z " fill="#4D3254" transform="translate(650,556)"/></g><g><path d="M0 0 C2.125 0.938 2.125 0.938 4 2 C3.67 2.66 3.34 3.32 3 4 C0.03 3.67 -2.94 3.34 -6 3 C-4 2 -2 1 0 0 Z " fill="#8453B5" transform="translate(638,651)"/></g><g><path d="M0 0 C2.97 0.33 5.94 0.66 9 1 C8.67 1.66 8.34 2.32 8 3 C2.25 3.125 2.25 3.125 0 2 C0 1.34 0 0.68 0 0 Z " fill="#1D0F62" transform="translate(409,612)"/></g><g><path d="M0 0 C3.3 0.33 6.6 0.66 10 1 C5.645 3.178 4.534 3.03 0 2 C0 1.34 0 0.68 0 0 Z " fill="#1C163D" transform="translate(409,568)"/></g><g><path d="M0 0 C3.3 0 6.6 0 10 0 C10.33 0.99 10.66 1.98 11 3 C9.742 2.876 8.484 2.753 7.188 2.625 C6.126 2.521 6.126 2.521 5.043 2.414 C3 2 3 2 0 0 Z " fill="#A987FE" transform="translate(751,895)"/></g><g><path d="M0 0 C0.99 0 1.98 0 3 0 C3.625 3.375 3.625 3.375 4 7 C3.34 7.66 2.68 8.32 2 9 C1.34 6.03 0.68 3.06 0 0 Z " fill="#9E77F7" transform="translate(714,852)"/></g><g><path d="M0 0 C2.475 0.495 2.475 0.495 5 1 C5 1.99 5 2.98 5 4 C4.01 4.495 4.01 4.495 3 5 C1 3 1 3 0 0 Z " fill="#2D1E5B" transform="translate(748,704)"/></g><g><path d="M0 0 C-3.269 1.031 -5.86 0.964 -9.25 0.562 C-10.142 0.461 -11.034 0.359 -11.953 0.254 C-12.629 0.17 -13.304 0.086 -14 0 C-14 -0.33 -14 -0.66 -14 -1 C-12.419 -1.223 -10.835 -1.428 -9.25 -1.625 C-8.368 -1.741 -7.487 -1.857 -6.578 -1.977 C-3.771 -2.002 -2.366 -1.448 0 0 Z " fill="#2D1E5B" transform="translate(394,451)"/></g></svg>